M48
; DRILL file {KiCad 6.0.2-378541a8eb~116~ubuntu20.04.1} date Sun 27 Feb 2022 20:23:18
; FORMAT={-:-/ absolute / inch / decimal}
; #@! TF.CreationDate,2022-02-27T20:23:18+11:00
; #@! TF.GenerationSoftware,Kicad,Pcbnew,6.0.2-378541a8eb~116~ubuntu20.04.1
; #@! TF.FileFunction,Plated,1,2,PTH
FMAT,2
INCH
; #@! TA.AperFunction,Plated,PTH,ViaDrill
T1C0.0118
; #@! TA.AperFunction,Plated,PTH,ComponentDrill
T2C0.0118
; #@! TA.AperFunction,Plated,PTH,ViaDrill
T3C0.0197
; #@! TA.AperFunction,Plated,PTH,ComponentDrill
T4C0.0354
; #@! TA.AperFunction,Plated,PTH,ComponentDrill
T5C0.0394
; #@! TA.AperFunction,Plated,PTH,ComponentDrill
T6C0.0472
; #@! TA.AperFunction,Plated,PTH,ComponentDrill
T7C0.0591
%
G90
G05
T1
X3.3406Y-2.6988
X3.4098Y-2.7283
X3.4846Y-3.2484
X4.0205Y-3.2
X4.0461Y-2.8366
X4.1886Y-2.8823
X4.2102Y-2.6843
X4.3827Y-3.0531
X4.3839Y-2.8327
X4.4329Y-3.0856
X4.4449Y-2.6496
X4.4764Y-3.0276
X4.5Y-3.2717
X4.5079Y-3.4291
X4.5236Y-3.3268
X4.5333Y-2.8335
X4.5344Y-2.7953
X4.5451Y-2.9667
X4.5768Y-2.9823
X4.6567Y-2.8407
X4.6654Y-3.0276
X4.689Y-3.437
X4.7224Y-3.2421
X4.7343Y-2.9394
X4.8337Y-2.6388
X5.0311Y-2.7083
X5.128Y-3.0039
T2
X3.6445Y-3.0421
X3.6445Y-3.0894
X3.6445Y-3.1406
X3.6445Y-3.1839
X3.6917Y-3.0421
X3.6917Y-3.0894
X3.6917Y-3.1406
X3.6917Y-3.1839
T3
X3.3303Y-2.9941
X3.7827Y-3.4902
X4.0205Y-3.3217
T4
X5.0492Y-3.3189
X5.128Y-3.3189
X5.2067Y-3.3189
T5
X3.1713Y-2.7256
X3.1713Y-2.8256
X3.4252Y-2.4787
X3.4252Y-2.5787
X3.5252Y-2.4787
X3.5252Y-2.5787
X3.6252Y-2.4787
X3.6252Y-2.5787
X3.7252Y-2.4787
X3.7252Y-2.5787
X3.8252Y-2.4787
X3.8252Y-2.5787
X3.9252Y-2.4787
X3.9252Y-2.5787
X4.0252Y-2.4787
X4.0252Y-2.5787
X4.1252Y-2.4787
X4.1252Y-2.5787
X4.2252Y-2.4787
X4.2252Y-2.5787
X4.3252Y-2.4787
X4.3252Y-2.5787
X4.4252Y-2.4787
X4.4252Y-2.5787
X4.5252Y-2.4787
X4.5252Y-2.5787
X4.6252Y-2.4787
X4.6252Y-2.5787
X4.7252Y-2.4787
X4.7252Y-2.5787
X4.8252Y-2.4787
X4.8252Y-2.5787
X4.9252Y-2.4787
X4.9252Y-2.5787
X5.0252Y-2.4787
X5.0252Y-2.5787
X5.0293Y-3.0787
X5.1252Y-2.4787
X5.1252Y-2.5787
X5.1293Y-3.0787
X5.2252Y-2.4787
X5.2252Y-2.5787
X5.2293Y-3.0787
X5.3252Y-2.4787
X5.3252Y-2.5787
T6
X4.0925Y-3.124
X4.1909Y-3.124
T7
X4.9665Y-3.3189
X5.2894Y-3.3189
T0
M30
