G04 #@! TF.GenerationSoftware,KiCad,Pcbnew,6.0.2-378541a8eb~116~ubuntu20.04.1*
G04 #@! TF.CreationDate,2022-02-27T20:25:45+11:00*
G04 #@! TF.ProjectId,PiConnectLite,5069436f-6e6e-4656-9374-4c6974652e6b,rev?*
G04 #@! TF.SameCoordinates,Original*
G04 #@! TF.FileFunction,Paste,Bot*
G04 #@! TF.FilePolarity,Positive*
%FSLAX46Y46*%
G04 Gerber Fmt 4.6, Leading zero omitted, Abs format (unit mm)*
G04 Created by KiCad (PCBNEW 6.0.2-378541a8eb~116~ubuntu20.04.1) date 2022-02-27 20:25:45*
%MOMM*%
%LPD*%
G01*
G04 APERTURE LIST*
G04 Aperture macros list*
%AMRoundRect*
0 Rectangle with rounded corners*
0 $1 Rounding radius*
0 $2 $3 $4 $5 $6 $7 $8 $9 X,Y pos of 4 corners*
0 Add a 4 corners polygon primitive as box body*
4,1,4,$2,$3,$4,$5,$6,$7,$8,$9,$2,$3,0*
0 Add four circle primitives for the rounded corners*
1,1,$1+$1,$2,$3*
1,1,$1+$1,$4,$5*
1,1,$1+$1,$6,$7*
1,1,$1+$1,$8,$9*
0 Add four rect primitives between the rounded corners*
20,1,$1+$1,$2,$3,$4,$5,0*
20,1,$1+$1,$4,$5,$6,$7,0*
20,1,$1+$1,$6,$7,$8,$9,0*
20,1,$1+$1,$8,$9,$2,$3,0*%
G04 Aperture macros list end*
G04 #@! TA.AperFunction,Profile*
%ADD10C,0.100000*%
G04 #@! TD*
%ADD11R,1.560000X0.650000*%
%ADD12RoundRect,0.218750X0.256250X-0.218750X0.256250X0.218750X-0.256250X0.218750X-0.256250X-0.218750X0*%
%ADD13RoundRect,0.147500X0.172500X-0.147500X0.172500X0.147500X-0.172500X0.147500X-0.172500X-0.147500X0*%
%ADD14RoundRect,0.249999X1.075001X-0.425001X1.075001X0.425001X-1.075001X0.425001X-1.075001X-0.425001X0*%
%ADD15R,2.500000X1.800000*%
%ADD16R,1.800000X2.500000*%
%ADD17R,1.350000X1.350000*%
%ADD18O,1.350000X1.350000*%
G04 APERTURE END LIST*
D10*
X117500000Y-91000000D02*
X140500000Y-91000000D01*
X143500000Y-63500000D02*
G75*
G03*
X140500000Y-60500000I-3000001J-1D01*
G01*
X143500000Y-68000000D02*
X143500000Y-66500000D01*
X143500000Y-74000000D02*
X143500000Y-68000000D01*
X143500000Y-66500000D02*
X143500000Y-63500000D01*
X140500000Y-91000001D02*
G75*
G03*
X143499995Y-88005236I-2J3000002D01*
G01*
X78500000Y-63500000D02*
X78500000Y-88000000D01*
X81500000Y-60500000D02*
G75*
G03*
X78500000Y-63500000I1J-3000001D01*
G01*
X143499995Y-88005236D02*
X143500000Y-74000000D01*
X140500000Y-60500000D02*
X81500000Y-60500000D01*
X78500000Y-88000000D02*
G75*
G03*
X81500000Y-91000000I3000001J1D01*
G01*
X81500000Y-91000000D02*
X117500000Y-91000000D01*
D11*
X92350000Y-68550000D03*
X92350000Y-69500000D03*
X92350000Y-70450000D03*
X89650000Y-70450000D03*
X89650000Y-69500000D03*
X89650000Y-68550000D03*
D12*
X92500000Y-74049500D03*
X92500000Y-72474500D03*
D13*
X87000000Y-71485000D03*
X87000000Y-70515000D03*
D14*
X99630000Y-84410000D03*
X99630000Y-79910000D03*
D15*
X103480000Y-75740000D03*
X107480000Y-75740000D03*
D16*
X100100000Y-73320000D03*
X100100000Y-77320000D03*
D17*
X111900000Y-88100000D03*
D18*
X113900000Y-88100000D03*
X115900000Y-88100000D03*
X117900000Y-88100000D03*
X119900000Y-88100000D03*
X121900000Y-88100000D03*
M02*
