G04 #@! TF.GenerationSoftware,KiCad,Pcbnew,6.0.2-378541a8eb~116~ubuntu20.04.1*
G04 #@! TF.CreationDate,2022-02-27T20:25:45+11:00*
G04 #@! TF.ProjectId,PiConnectLite,5069436f-6e6e-4656-9374-4c6974652e6b,rev?*
G04 #@! TF.SameCoordinates,Original*
G04 #@! TF.FileFunction,Legend,Top*
G04 #@! TF.FilePolarity,Positive*
%FSLAX46Y46*%
G04 Gerber Fmt 4.6, Leading zero omitted, Abs format (unit mm)*
G04 Created by KiCad (PCBNEW 6.0.2-378541a8eb~116~ubuntu20.04.1) date 2022-02-27 20:25:45*
%MOMM*%
%LPD*%
G01*
G04 APERTURE LIST*
%ADD10C,0.150000*%
G04 #@! TA.AperFunction,Profile*
%ADD11C,0.100000*%
G04 #@! TD*
%ADD12C,0.200000*%
%ADD13C,0.175000*%
%ADD14C,0.250000*%
%ADD15C,0.300000*%
%ADD16C,0.125000*%
%ADD17C,0.120000*%
G04 APERTURE END LIST*
D10*
X91482788Y-78100000D02*
G75*
G03*
X91482788Y-78100000I-162788J0D01*
G01*
X109910355Y-75875000D02*
G75*
G03*
X109910355Y-75875000I-35355J0D01*
G01*
X125205489Y-72125000D02*
G75*
G03*
X125205489Y-72125000I-230489J0D01*
G01*
X105271652Y-73880000D02*
G75*
G03*
X105271652Y-73880000I-371652J0D01*
G01*
X85929057Y-73920000D02*
G75*
G03*
X85929057Y-73920000I-79057J0D01*
G01*
X111206066Y-70725000D02*
G75*
G03*
X111206066Y-70725000I-106066J0D01*
G01*
D11*
X117500000Y-91000000D02*
X140500000Y-91000000D01*
X143500000Y-63500000D02*
G75*
G03*
X140500000Y-60500000I-3000001J-1D01*
G01*
X143500000Y-68000000D02*
X143500000Y-66500000D01*
X143500000Y-74000000D02*
X143500000Y-68000000D01*
X143500000Y-66500000D02*
X143500000Y-63500000D01*
X140500000Y-91000001D02*
G75*
G03*
X143499995Y-88005236I-2J3000002D01*
G01*
X78500000Y-63500000D02*
X78500000Y-88000000D01*
X81500000Y-60500000D02*
G75*
G03*
X78500000Y-63500000I1J-3000001D01*
G01*
X143499995Y-88005236D02*
X143500000Y-74000000D01*
X140500000Y-60500000D02*
X81500000Y-60500000D01*
X78500000Y-88000000D02*
G75*
G03*
X81500000Y-91000000I3000001J1D01*
G01*
X81500000Y-91000000D02*
X117500000Y-91000000D01*
D12*
X108922380Y-90505238D02*
X108922380Y-89838571D01*
X109922380Y-90267142D01*
X109541428Y-89457619D02*
X109541428Y-88695714D01*
X108922380Y-88314761D02*
X108922380Y-87695714D01*
X109303333Y-88029047D01*
X109303333Y-87886190D01*
X109350952Y-87790952D01*
X109398571Y-87743333D01*
X109493809Y-87695714D01*
X109731904Y-87695714D01*
X109827142Y-87743333D01*
X109874761Y-87790952D01*
X109922380Y-87886190D01*
X109922380Y-88171904D01*
X109874761Y-88267142D01*
X109827142Y-88314761D01*
X108922380Y-87076666D02*
X108922380Y-86981428D01*
X108970000Y-86886190D01*
X109017619Y-86838571D01*
X109112857Y-86790952D01*
X109303333Y-86743333D01*
X109541428Y-86743333D01*
X109731904Y-86790952D01*
X109827142Y-86838571D01*
X109874761Y-86886190D01*
X109922380Y-86981428D01*
X109922380Y-87076666D01*
X109874761Y-87171904D01*
X109827142Y-87219523D01*
X109731904Y-87267142D01*
X109541428Y-87314761D01*
X109303333Y-87314761D01*
X109112857Y-87267142D01*
X109017619Y-87219523D01*
X108970000Y-87171904D01*
X108922380Y-87076666D01*
X108922380Y-86457619D02*
X109922380Y-86124285D01*
X108922380Y-85790952D01*
X109922380Y-84695714D02*
X108922380Y-84695714D01*
X109255714Y-84219523D02*
X109922380Y-84219523D01*
X109350952Y-84219523D02*
X109303333Y-84171904D01*
X109255714Y-84076666D01*
X109255714Y-83933809D01*
X109303333Y-83838571D01*
X109398571Y-83790952D01*
X109922380Y-83790952D01*
X109255714Y-83314761D02*
X110255714Y-83314761D01*
X109303333Y-83314761D02*
X109255714Y-83219523D01*
X109255714Y-83029047D01*
X109303333Y-82933809D01*
X109350952Y-82886190D01*
X109446190Y-82838571D01*
X109731904Y-82838571D01*
X109827142Y-82886190D01*
X109874761Y-82933809D01*
X109922380Y-83029047D01*
X109922380Y-83219523D01*
X109874761Y-83314761D01*
X109255714Y-81981428D02*
X109922380Y-81981428D01*
X109255714Y-82410000D02*
X109779523Y-82410000D01*
X109874761Y-82362380D01*
X109922380Y-82267142D01*
X109922380Y-82124285D01*
X109874761Y-82029047D01*
X109827142Y-81981428D01*
X109255714Y-81648095D02*
X109255714Y-81267142D01*
X108922380Y-81505238D02*
X109779523Y-81505238D01*
X109874761Y-81457619D01*
X109922380Y-81362380D01*
X109922380Y-81267142D01*
D13*
X113421428Y-83104761D02*
X112564285Y-84390476D01*
X114183333Y-84152380D02*
X114183333Y-83152380D01*
X114183333Y-84104761D02*
X114088095Y-84152380D01*
X113897619Y-84152380D01*
X113802380Y-84104761D01*
X113754761Y-84057142D01*
X113707142Y-83961904D01*
X113707142Y-83676190D01*
X113754761Y-83580952D01*
X113802380Y-83533333D01*
X113897619Y-83485714D01*
X114088095Y-83485714D01*
X114183333Y-83533333D01*
X115040476Y-84104761D02*
X114945238Y-84152380D01*
X114754761Y-84152380D01*
X114659523Y-84104761D01*
X114611904Y-84009523D01*
X114611904Y-83628571D01*
X114659523Y-83533333D01*
X114754761Y-83485714D01*
X114945238Y-83485714D01*
X115040476Y-83533333D01*
X115088095Y-83628571D01*
X115088095Y-83723809D01*
X114611904Y-83819047D01*
X115421428Y-83485714D02*
X115659523Y-84152380D01*
X115897619Y-83485714D01*
X116992857Y-83104761D02*
X116135714Y-84390476D01*
X117278571Y-84104761D02*
X117373809Y-84152380D01*
X117564285Y-84152380D01*
X117659523Y-84104761D01*
X117707142Y-84009523D01*
X117707142Y-83961904D01*
X117659523Y-83866666D01*
X117564285Y-83819047D01*
X117421428Y-83819047D01*
X117326190Y-83771428D01*
X117278571Y-83676190D01*
X117278571Y-83628571D01*
X117326190Y-83533333D01*
X117421428Y-83485714D01*
X117564285Y-83485714D01*
X117659523Y-83533333D01*
X118516666Y-84104761D02*
X118421428Y-84152380D01*
X118230952Y-84152380D01*
X118135714Y-84104761D01*
X118088095Y-84009523D01*
X118088095Y-83628571D01*
X118135714Y-83533333D01*
X118230952Y-83485714D01*
X118421428Y-83485714D01*
X118516666Y-83533333D01*
X118564285Y-83628571D01*
X118564285Y-83723809D01*
X118088095Y-83819047D01*
X118992857Y-84152380D02*
X118992857Y-83485714D01*
X118992857Y-83676190D02*
X119040476Y-83580952D01*
X119088095Y-83533333D01*
X119183333Y-83485714D01*
X119278571Y-83485714D01*
X119611904Y-84152380D02*
X119611904Y-83485714D01*
X119611904Y-83152380D02*
X119564285Y-83200000D01*
X119611904Y-83247619D01*
X119659523Y-83200000D01*
X119611904Y-83152380D01*
X119611904Y-83247619D01*
X120516666Y-84152380D02*
X120516666Y-83628571D01*
X120469047Y-83533333D01*
X120373809Y-83485714D01*
X120183333Y-83485714D01*
X120088095Y-83533333D01*
X120516666Y-84104761D02*
X120421428Y-84152380D01*
X120183333Y-84152380D01*
X120088095Y-84104761D01*
X120040476Y-84009523D01*
X120040476Y-83914285D01*
X120088095Y-83819047D01*
X120183333Y-83771428D01*
X120421428Y-83771428D01*
X120516666Y-83723809D01*
X121135714Y-84152380D02*
X121040476Y-84104761D01*
X120992857Y-84009523D01*
X120992857Y-83152380D01*
X121707142Y-83152380D02*
X121802380Y-83152380D01*
X121897619Y-83200000D01*
X121945238Y-83247619D01*
X121992857Y-83342857D01*
X122040476Y-83533333D01*
X122040476Y-83771428D01*
X121992857Y-83961904D01*
X121945238Y-84057142D01*
X121897619Y-84104761D01*
X121802380Y-84152380D01*
X121707142Y-84152380D01*
X121611904Y-84104761D01*
X121564285Y-84057142D01*
X121516666Y-83961904D01*
X121469047Y-83771428D01*
X121469047Y-83533333D01*
X121516666Y-83342857D01*
X121564285Y-83247619D01*
X121611904Y-83200000D01*
X121707142Y-83152380D01*
D12*
X124369047Y-81352380D02*
X124369047Y-80352380D01*
X124750000Y-80352380D01*
X124845238Y-80400000D01*
X124892857Y-80447619D01*
X124940476Y-80542857D01*
X124940476Y-80685714D01*
X124892857Y-80780952D01*
X124845238Y-80828571D01*
X124750000Y-80876190D01*
X124369047Y-80876190D01*
X125369047Y-81352380D02*
X125369047Y-80685714D01*
X125369047Y-80352380D02*
X125321428Y-80400000D01*
X125369047Y-80447619D01*
X125416666Y-80400000D01*
X125369047Y-80352380D01*
X125369047Y-80447619D01*
X126607142Y-81352380D02*
X126607142Y-80352380D01*
X126988095Y-80352380D01*
X127083333Y-80400000D01*
X127130952Y-80447619D01*
X127178571Y-80542857D01*
X127178571Y-80685714D01*
X127130952Y-80780952D01*
X127083333Y-80828571D01*
X126988095Y-80876190D01*
X126607142Y-80876190D01*
X127750000Y-81352380D02*
X127654761Y-81304761D01*
X127607142Y-81257142D01*
X127559523Y-81161904D01*
X127559523Y-80876190D01*
X127607142Y-80780952D01*
X127654761Y-80733333D01*
X127750000Y-80685714D01*
X127892857Y-80685714D01*
X127988095Y-80733333D01*
X128035714Y-80780952D01*
X128083333Y-80876190D01*
X128083333Y-81161904D01*
X128035714Y-81257142D01*
X127988095Y-81304761D01*
X127892857Y-81352380D01*
X127750000Y-81352380D01*
X128416666Y-80685714D02*
X128607142Y-81352380D01*
X128797619Y-80876190D01*
X128988095Y-81352380D01*
X129178571Y-80685714D01*
X129940476Y-81304761D02*
X129845238Y-81352380D01*
X129654761Y-81352380D01*
X129559523Y-81304761D01*
X129511904Y-81209523D01*
X129511904Y-80828571D01*
X129559523Y-80733333D01*
X129654761Y-80685714D01*
X129845238Y-80685714D01*
X129940476Y-80733333D01*
X129988095Y-80828571D01*
X129988095Y-80923809D01*
X129511904Y-81019047D01*
X130416666Y-81352380D02*
X130416666Y-80685714D01*
X130416666Y-80876190D02*
X130464285Y-80780952D01*
X130511904Y-80733333D01*
X130607142Y-80685714D01*
X130702380Y-80685714D01*
X131750000Y-81304761D02*
X131892857Y-81352380D01*
X132130952Y-81352380D01*
X132226190Y-81304761D01*
X132273809Y-81257142D01*
X132321428Y-81161904D01*
X132321428Y-81066666D01*
X132273809Y-80971428D01*
X132226190Y-80923809D01*
X132130952Y-80876190D01*
X131940476Y-80828571D01*
X131845238Y-80780952D01*
X131797619Y-80733333D01*
X131750000Y-80638095D01*
X131750000Y-80542857D01*
X131797619Y-80447619D01*
X131845238Y-80400000D01*
X131940476Y-80352380D01*
X132178571Y-80352380D01*
X132321428Y-80400000D01*
X132654761Y-80685714D02*
X132845238Y-81352380D01*
X133035714Y-80876190D01*
X133226190Y-81352380D01*
X133416666Y-80685714D01*
X133797619Y-81352380D02*
X133797619Y-80685714D01*
X133797619Y-80352380D02*
X133750000Y-80400000D01*
X133797619Y-80447619D01*
X133845238Y-80400000D01*
X133797619Y-80352380D01*
X133797619Y-80447619D01*
X134130952Y-80685714D02*
X134511904Y-80685714D01*
X134273809Y-80352380D02*
X134273809Y-81209523D01*
X134321428Y-81304761D01*
X134416666Y-81352380D01*
X134511904Y-81352380D01*
X135273809Y-81304761D02*
X135178571Y-81352380D01*
X134988095Y-81352380D01*
X134892857Y-81304761D01*
X134845238Y-81257142D01*
X134797619Y-81161904D01*
X134797619Y-80876190D01*
X134845238Y-80780952D01*
X134892857Y-80733333D01*
X134988095Y-80685714D01*
X135178571Y-80685714D01*
X135273809Y-80733333D01*
X135702380Y-81352380D02*
X135702380Y-80352380D01*
X136130952Y-81352380D02*
X136130952Y-80828571D01*
X136083333Y-80733333D01*
X135988095Y-80685714D01*
X135845238Y-80685714D01*
X135750000Y-80733333D01*
X135702380Y-80780952D01*
D14*
X102221428Y-79730952D02*
X102221428Y-78969047D01*
X102602380Y-79350000D02*
X101840476Y-79350000D01*
X135402380Y-89352380D02*
X135402380Y-89161904D01*
X135450000Y-89066666D01*
X135545238Y-88971428D01*
X135735714Y-88923809D01*
X136069047Y-88923809D01*
X136259523Y-88971428D01*
X136354761Y-89066666D01*
X136402380Y-89161904D01*
X136402380Y-89352380D01*
X136354761Y-89447619D01*
X136259523Y-89542857D01*
X136069047Y-89590476D01*
X135735714Y-89590476D01*
X135545238Y-89542857D01*
X135450000Y-89447619D01*
X135402380Y-89352380D01*
X135878571Y-88161904D02*
X135878571Y-88495238D01*
X136402380Y-88495238D02*
X135402380Y-88495238D01*
X135402380Y-88019047D01*
X135878571Y-87304761D02*
X135878571Y-87638095D01*
X136402380Y-87638095D02*
X135402380Y-87638095D01*
X135402380Y-87161904D01*
X123952380Y-89119047D02*
X123952380Y-88928571D01*
X124000000Y-88833333D01*
X124095238Y-88738095D01*
X124285714Y-88690476D01*
X124619047Y-88690476D01*
X124809523Y-88738095D01*
X124904761Y-88833333D01*
X124952380Y-88928571D01*
X124952380Y-89119047D01*
X124904761Y-89214285D01*
X124809523Y-89309523D01*
X124619047Y-89357142D01*
X124285714Y-89357142D01*
X124095238Y-89309523D01*
X124000000Y-89214285D01*
X123952380Y-89119047D01*
X124952380Y-88261904D02*
X123952380Y-88261904D01*
X124952380Y-87690476D01*
X123952380Y-87690476D01*
D12*
X119550000Y-82059523D02*
X119511904Y-82135714D01*
X119511904Y-82250000D01*
X119550000Y-82364285D01*
X119626190Y-82440476D01*
X119702380Y-82478571D01*
X119854761Y-82516666D01*
X119969047Y-82516666D01*
X120121428Y-82478571D01*
X120197619Y-82440476D01*
X120273809Y-82364285D01*
X120311904Y-82250000D01*
X120311904Y-82173809D01*
X120273809Y-82059523D01*
X120235714Y-82021428D01*
X119969047Y-82021428D01*
X119969047Y-82173809D01*
X120311904Y-81678571D02*
X119511904Y-81678571D01*
X120311904Y-81221428D01*
X119511904Y-81221428D01*
X120311904Y-80840476D02*
X119511904Y-80840476D01*
X119511904Y-80650000D01*
X119550000Y-80535714D01*
X119626190Y-80459523D01*
X119702380Y-80421428D01*
X119854761Y-80383333D01*
X119969047Y-80383333D01*
X120121428Y-80421428D01*
X120197619Y-80459523D01*
X120273809Y-80535714D01*
X120311904Y-80650000D01*
X120311904Y-80840476D01*
X116711904Y-82490476D02*
X115911904Y-82490476D01*
X115911904Y-82185714D01*
X115950000Y-82109523D01*
X115988095Y-82071428D01*
X116064285Y-82033333D01*
X116178571Y-82033333D01*
X116254761Y-82071428D01*
X116292857Y-82109523D01*
X116330952Y-82185714D01*
X116330952Y-82490476D01*
X116711904Y-81690476D02*
X116178571Y-81690476D01*
X115911904Y-81690476D02*
X115950000Y-81728571D01*
X115988095Y-81690476D01*
X115950000Y-81652380D01*
X115911904Y-81690476D01*
X115988095Y-81690476D01*
X115911904Y-80814285D02*
X115911904Y-80357142D01*
X116711904Y-80585714D02*
X115911904Y-80585714D01*
X115911904Y-80166666D02*
X116711904Y-79633333D01*
X115911904Y-79633333D02*
X116711904Y-80166666D01*
X115461904Y-82535714D02*
X114661904Y-82535714D01*
X114661904Y-82230952D01*
X114700000Y-82154761D01*
X114738095Y-82116666D01*
X114814285Y-82078571D01*
X114928571Y-82078571D01*
X115004761Y-82116666D01*
X115042857Y-82154761D01*
X115080952Y-82230952D01*
X115080952Y-82535714D01*
X115461904Y-81735714D02*
X114928571Y-81735714D01*
X114661904Y-81735714D02*
X114700000Y-81773809D01*
X114738095Y-81735714D01*
X114700000Y-81697619D01*
X114661904Y-81735714D01*
X114738095Y-81735714D01*
X115461904Y-80288095D02*
X115080952Y-80554761D01*
X115461904Y-80745238D02*
X114661904Y-80745238D01*
X114661904Y-80440476D01*
X114700000Y-80364285D01*
X114738095Y-80326190D01*
X114814285Y-80288095D01*
X114928571Y-80288095D01*
X115004761Y-80326190D01*
X115042857Y-80364285D01*
X115080952Y-80440476D01*
X115080952Y-80745238D01*
X114661904Y-80021428D02*
X115461904Y-79488095D01*
X114661904Y-79488095D02*
X115461904Y-80021428D01*
D13*
X83010000Y-68124285D02*
X83052857Y-68038571D01*
X83052857Y-67910000D01*
X83010000Y-67781428D01*
X82924285Y-67695714D01*
X82838571Y-67652857D01*
X82667142Y-67610000D01*
X82538571Y-67610000D01*
X82367142Y-67652857D01*
X82281428Y-67695714D01*
X82195714Y-67781428D01*
X82152857Y-67910000D01*
X82152857Y-67995714D01*
X82195714Y-68124285D01*
X82238571Y-68167142D01*
X82538571Y-68167142D01*
X82538571Y-67995714D01*
X82152857Y-68552857D02*
X83052857Y-68552857D01*
X82152857Y-69067142D01*
X83052857Y-69067142D01*
X82152857Y-69495714D02*
X83052857Y-69495714D01*
X83052857Y-69710000D01*
X83010000Y-69838571D01*
X82924285Y-69924285D01*
X82838571Y-69967142D01*
X82667142Y-70010000D01*
X82538571Y-70010000D01*
X82367142Y-69967142D01*
X82281428Y-69924285D01*
X82195714Y-69838571D01*
X82152857Y-69710000D01*
X82152857Y-69495714D01*
X83052857Y-71510000D02*
X83052857Y-71081428D01*
X82624285Y-71038571D01*
X82667142Y-71081428D01*
X82710000Y-71167142D01*
X82710000Y-71381428D01*
X82667142Y-71467142D01*
X82624285Y-71510000D01*
X82538571Y-71552857D01*
X82324285Y-71552857D01*
X82238571Y-71510000D01*
X82195714Y-71467142D01*
X82152857Y-71381428D01*
X82152857Y-71167142D01*
X82195714Y-71081428D01*
X82238571Y-71038571D01*
X82238571Y-71938571D02*
X82195714Y-71981428D01*
X82152857Y-71938571D01*
X82195714Y-71895714D01*
X82238571Y-71938571D01*
X82152857Y-71938571D01*
X82152857Y-72838571D02*
X82152857Y-72324285D01*
X82152857Y-72581428D02*
X83052857Y-72581428D01*
X82924285Y-72495714D01*
X82838571Y-72410000D01*
X82795714Y-72324285D01*
X83052857Y-73095714D02*
X82152857Y-73395714D01*
X83052857Y-73695714D01*
X111453333Y-66730000D02*
X111386666Y-66696666D01*
X111286666Y-66696666D01*
X111186666Y-66730000D01*
X111120000Y-66796666D01*
X111086666Y-66863333D01*
X111053333Y-66996666D01*
X111053333Y-67096666D01*
X111086666Y-67230000D01*
X111120000Y-67296666D01*
X111186666Y-67363333D01*
X111286666Y-67396666D01*
X111353333Y-67396666D01*
X111453333Y-67363333D01*
X111486666Y-67330000D01*
X111486666Y-67096666D01*
X111353333Y-67096666D01*
X111786666Y-67396666D02*
X111786666Y-66696666D01*
X112053333Y-66696666D01*
X112120000Y-66730000D01*
X112153333Y-66763333D01*
X112186666Y-66830000D01*
X112186666Y-66930000D01*
X112153333Y-66996666D01*
X112120000Y-67030000D01*
X112053333Y-67063333D01*
X111786666Y-67063333D01*
X112420000Y-66696666D02*
X112853333Y-66696666D01*
X112620000Y-66963333D01*
X112720000Y-66963333D01*
X112786666Y-66996666D01*
X112820000Y-67030000D01*
X112853333Y-67096666D01*
X112853333Y-67263333D01*
X112820000Y-67330000D01*
X112786666Y-67363333D01*
X112720000Y-67396666D01*
X112520000Y-67396666D01*
X112453333Y-67363333D01*
X112420000Y-67330000D01*
X113320000Y-67630000D02*
X113320000Y-66630000D01*
X114186666Y-66730000D02*
X114120000Y-66696666D01*
X114020000Y-66696666D01*
X113920000Y-66730000D01*
X113853333Y-66796666D01*
X113820000Y-66863333D01*
X113786666Y-66996666D01*
X113786666Y-67096666D01*
X113820000Y-67230000D01*
X113853333Y-67296666D01*
X113920000Y-67363333D01*
X114020000Y-67396666D01*
X114086666Y-67396666D01*
X114186666Y-67363333D01*
X114220000Y-67330000D01*
X114220000Y-67096666D01*
X114086666Y-67096666D01*
X114520000Y-67396666D02*
X114520000Y-66696666D01*
X114786666Y-66696666D01*
X114853333Y-66730000D01*
X114886666Y-66763333D01*
X114920000Y-66830000D01*
X114920000Y-66930000D01*
X114886666Y-66996666D01*
X114853333Y-67030000D01*
X114786666Y-67063333D01*
X114520000Y-67063333D01*
X115520000Y-66930000D02*
X115520000Y-67396666D01*
X115353333Y-66663333D02*
X115186666Y-67163333D01*
X115620000Y-67163333D01*
D12*
X79087619Y-77266666D02*
X80087619Y-77266666D01*
X80087619Y-77647619D01*
X80040000Y-77742857D01*
X79992380Y-77790476D01*
X79897142Y-77838095D01*
X79754285Y-77838095D01*
X79659047Y-77790476D01*
X79611428Y-77742857D01*
X79563809Y-77647619D01*
X79563809Y-77266666D01*
X80087619Y-78171428D02*
X79087619Y-78409523D01*
X79801904Y-78600000D01*
X79087619Y-78790476D01*
X80087619Y-79028571D01*
X79087619Y-79980952D02*
X79563809Y-79647619D01*
X79087619Y-79409523D02*
X80087619Y-79409523D01*
X80087619Y-79790476D01*
X80040000Y-79885714D01*
X79992380Y-79933333D01*
X79897142Y-79980952D01*
X79754285Y-79980952D01*
X79659047Y-79933333D01*
X79611428Y-79885714D01*
X79563809Y-79790476D01*
X79563809Y-79409523D01*
D14*
X108400000Y-80111904D02*
X108352380Y-80207142D01*
X108352380Y-80350000D01*
X108400000Y-80492857D01*
X108495238Y-80588095D01*
X108590476Y-80635714D01*
X108780952Y-80683333D01*
X108923809Y-80683333D01*
X109114285Y-80635714D01*
X109209523Y-80588095D01*
X109304761Y-80492857D01*
X109352380Y-80350000D01*
X109352380Y-80254761D01*
X109304761Y-80111904D01*
X109257142Y-80064285D01*
X108923809Y-80064285D01*
X108923809Y-80254761D01*
X109352380Y-79635714D02*
X108352380Y-79635714D01*
X109352380Y-79064285D01*
X108352380Y-79064285D01*
X109352380Y-78588095D02*
X108352380Y-78588095D01*
X108352380Y-78350000D01*
X108400000Y-78207142D01*
X108495238Y-78111904D01*
X108590476Y-78064285D01*
X108780952Y-78016666D01*
X108923809Y-78016666D01*
X109114285Y-78064285D01*
X109209523Y-78111904D01*
X109304761Y-78207142D01*
X109352380Y-78350000D01*
X109352380Y-78588095D01*
D12*
X134923571Y-79004761D02*
X134923571Y-78671428D01*
X135447380Y-78528571D02*
X135447380Y-79004761D01*
X134447380Y-79004761D01*
X134447380Y-78528571D01*
X135447380Y-78195238D02*
X134780714Y-77671428D01*
X134780714Y-78195238D02*
X135447380Y-77671428D01*
X134780714Y-77433333D02*
X134780714Y-77052380D01*
X134447380Y-77290476D02*
X135304523Y-77290476D01*
X135399761Y-77242857D01*
X135447380Y-77147619D01*
X135447380Y-77052380D01*
X137009761Y-80314285D02*
X137057380Y-80171428D01*
X137057380Y-79933333D01*
X137009761Y-79838095D01*
X136962142Y-79790476D01*
X136866904Y-79742857D01*
X136771666Y-79742857D01*
X136676428Y-79790476D01*
X136628809Y-79838095D01*
X136581190Y-79933333D01*
X136533571Y-80123809D01*
X136485952Y-80219047D01*
X136438333Y-80266666D01*
X136343095Y-80314285D01*
X136247857Y-80314285D01*
X136152619Y-80266666D01*
X136105000Y-80219047D01*
X136057380Y-80123809D01*
X136057380Y-79885714D01*
X136105000Y-79742857D01*
X136390714Y-79409523D02*
X137057380Y-79219047D01*
X136581190Y-79028571D01*
X137057380Y-78838095D01*
X136390714Y-78647619D01*
X137057380Y-78266666D02*
X136390714Y-78266666D01*
X136057380Y-78266666D02*
X136105000Y-78314285D01*
X136152619Y-78266666D01*
X136105000Y-78219047D01*
X136057380Y-78266666D01*
X136152619Y-78266666D01*
X136390714Y-77933333D02*
X136390714Y-77552380D01*
X136057380Y-77790476D02*
X136914523Y-77790476D01*
X137009761Y-77742857D01*
X137057380Y-77647619D01*
X137057380Y-77552380D01*
X137009761Y-76790476D02*
X137057380Y-76885714D01*
X137057380Y-77076190D01*
X137009761Y-77171428D01*
X136962142Y-77219047D01*
X136866904Y-77266666D01*
X136581190Y-77266666D01*
X136485952Y-77219047D01*
X136438333Y-77171428D01*
X136390714Y-77076190D01*
X136390714Y-76885714D01*
X136438333Y-76790476D01*
X137057380Y-76361904D02*
X136057380Y-76361904D01*
X137057380Y-75933333D02*
X136533571Y-75933333D01*
X136438333Y-75980952D01*
X136390714Y-76076190D01*
X136390714Y-76219047D01*
X136438333Y-76314285D01*
X136485952Y-76361904D01*
D15*
X140676857Y-82528571D02*
X139476857Y-82528571D01*
X139476857Y-82071428D01*
X139534000Y-81957142D01*
X139591142Y-81900000D01*
X139705428Y-81842857D01*
X139876857Y-81842857D01*
X139991142Y-81900000D01*
X140048285Y-81957142D01*
X140105428Y-82071428D01*
X140105428Y-82528571D01*
X140676857Y-81328571D02*
X139876857Y-81328571D01*
X139476857Y-81328571D02*
X139534000Y-81385714D01*
X139591142Y-81328571D01*
X139534000Y-81271428D01*
X139476857Y-81328571D01*
X139591142Y-81328571D01*
X140219714Y-80757142D02*
X140219714Y-79842857D01*
X140562571Y-78585714D02*
X140619714Y-78642857D01*
X140676857Y-78814285D01*
X140676857Y-78928571D01*
X140619714Y-79100000D01*
X140505428Y-79214285D01*
X140391142Y-79271428D01*
X140162571Y-79328571D01*
X139991142Y-79328571D01*
X139762571Y-79271428D01*
X139648285Y-79214285D01*
X139534000Y-79100000D01*
X139476857Y-78928571D01*
X139476857Y-78814285D01*
X139534000Y-78642857D01*
X139591142Y-78585714D01*
X140676857Y-77900000D02*
X140619714Y-78014285D01*
X140562571Y-78071428D01*
X140448285Y-78128571D01*
X140105428Y-78128571D01*
X139991142Y-78071428D01*
X139934000Y-78014285D01*
X139876857Y-77900000D01*
X139876857Y-77728571D01*
X139934000Y-77614285D01*
X139991142Y-77557142D01*
X140105428Y-77500000D01*
X140448285Y-77500000D01*
X140562571Y-77557142D01*
X140619714Y-77614285D01*
X140676857Y-77728571D01*
X140676857Y-77900000D01*
X139876857Y-76985714D02*
X140676857Y-76985714D01*
X139991142Y-76985714D02*
X139934000Y-76928571D01*
X139876857Y-76814285D01*
X139876857Y-76642857D01*
X139934000Y-76528571D01*
X140048285Y-76471428D01*
X140676857Y-76471428D01*
X139876857Y-75900000D02*
X140676857Y-75900000D01*
X139991142Y-75900000D02*
X139934000Y-75842857D01*
X139876857Y-75728571D01*
X139876857Y-75557142D01*
X139934000Y-75442857D01*
X140048285Y-75385714D01*
X140676857Y-75385714D01*
X140619714Y-74357142D02*
X140676857Y-74471428D01*
X140676857Y-74700000D01*
X140619714Y-74814285D01*
X140505428Y-74871428D01*
X140048285Y-74871428D01*
X139934000Y-74814285D01*
X139876857Y-74700000D01*
X139876857Y-74471428D01*
X139934000Y-74357142D01*
X140048285Y-74300000D01*
X140162571Y-74300000D01*
X140276857Y-74871428D01*
X140619714Y-73271428D02*
X140676857Y-73385714D01*
X140676857Y-73614285D01*
X140619714Y-73728571D01*
X140562571Y-73785714D01*
X140448285Y-73842857D01*
X140105428Y-73842857D01*
X139991142Y-73785714D01*
X139934000Y-73728571D01*
X139876857Y-73614285D01*
X139876857Y-73385714D01*
X139934000Y-73271428D01*
X139876857Y-72928571D02*
X139876857Y-72471428D01*
X139476857Y-72757142D02*
X140505428Y-72757142D01*
X140619714Y-72700000D01*
X140676857Y-72585714D01*
X140676857Y-72471428D01*
X140676857Y-70585714D02*
X140676857Y-71157142D01*
X139476857Y-71157142D01*
X140676857Y-70185714D02*
X139876857Y-70185714D01*
X139476857Y-70185714D02*
X139534000Y-70242857D01*
X139591142Y-70185714D01*
X139534000Y-70128571D01*
X139476857Y-70185714D01*
X139591142Y-70185714D01*
X139876857Y-69785714D02*
X139876857Y-69328571D01*
X139476857Y-69614285D02*
X140505428Y-69614285D01*
X140619714Y-69557142D01*
X140676857Y-69442857D01*
X140676857Y-69328571D01*
X140619714Y-68471428D02*
X140676857Y-68585714D01*
X140676857Y-68814285D01*
X140619714Y-68928571D01*
X140505428Y-68985714D01*
X140048285Y-68985714D01*
X139934000Y-68928571D01*
X139876857Y-68814285D01*
X139876857Y-68585714D01*
X139934000Y-68471428D01*
X140048285Y-68414285D01*
X140162571Y-68414285D01*
X140276857Y-68985714D01*
X141408857Y-77328571D02*
X142608857Y-76928571D01*
X141408857Y-76528571D01*
X142608857Y-75500000D02*
X142608857Y-76185714D01*
X142608857Y-75842857D02*
X141408857Y-75842857D01*
X141580285Y-75957142D01*
X141694571Y-76071428D01*
X141751714Y-76185714D01*
X142494571Y-74985714D02*
X142551714Y-74928571D01*
X142608857Y-74985714D01*
X142551714Y-75042857D01*
X142494571Y-74985714D01*
X142608857Y-74985714D01*
X141408857Y-73842857D02*
X141408857Y-74414285D01*
X141980285Y-74471428D01*
X141923142Y-74414285D01*
X141866000Y-74300000D01*
X141866000Y-74014285D01*
X141923142Y-73900000D01*
X141980285Y-73842857D01*
X142094571Y-73785714D01*
X142380285Y-73785714D01*
X142494571Y-73842857D01*
X142551714Y-73900000D01*
X142608857Y-74014285D01*
X142608857Y-74300000D01*
X142551714Y-74414285D01*
X142494571Y-74471428D01*
D12*
X128202857Y-73462380D02*
X128202857Y-72462380D01*
X128679047Y-72795714D02*
X128679047Y-73462380D01*
X128679047Y-72890952D02*
X128726666Y-72843333D01*
X128821904Y-72795714D01*
X128964761Y-72795714D01*
X129060000Y-72843333D01*
X129107619Y-72938571D01*
X129107619Y-73462380D01*
X129440952Y-72795714D02*
X129821904Y-72795714D01*
X129583809Y-72462380D02*
X129583809Y-73319523D01*
X129631428Y-73414761D01*
X129726666Y-73462380D01*
X129821904Y-73462380D01*
X130393333Y-73795714D02*
X130393333Y-72367142D01*
X131107619Y-72938571D02*
X131440952Y-72938571D01*
X131583809Y-73462380D02*
X131107619Y-73462380D01*
X131107619Y-72462380D01*
X131583809Y-72462380D01*
X131917142Y-73462380D02*
X132440952Y-72795714D01*
X131917142Y-72795714D02*
X132440952Y-73462380D01*
X132679047Y-72795714D02*
X133060000Y-72795714D01*
X132821904Y-72462380D02*
X132821904Y-73319523D01*
X132869523Y-73414761D01*
X132964761Y-73462380D01*
X133060000Y-73462380D01*
D15*
X66878571Y-82750000D02*
X66878571Y-81821428D01*
X67450000Y-82321428D01*
X67450000Y-82107142D01*
X67521428Y-81964285D01*
X67592857Y-81892857D01*
X67735714Y-81821428D01*
X68092857Y-81821428D01*
X68235714Y-81892857D01*
X68307142Y-81964285D01*
X68378571Y-82107142D01*
X68378571Y-82535714D01*
X68307142Y-82678571D01*
X68235714Y-82750000D01*
X66878571Y-80892857D02*
X66878571Y-80750000D01*
X66950000Y-80607142D01*
X67021428Y-80535714D01*
X67164285Y-80464285D01*
X67450000Y-80392857D01*
X67807142Y-80392857D01*
X68092857Y-80464285D01*
X68235714Y-80535714D01*
X68307142Y-80607142D01*
X68378571Y-80750000D01*
X68378571Y-80892857D01*
X68307142Y-81035714D01*
X68235714Y-81107142D01*
X68092857Y-81178571D01*
X67807142Y-81250000D01*
X67450000Y-81250000D01*
X67164285Y-81178571D01*
X67021428Y-81107142D01*
X66950000Y-81035714D01*
X66878571Y-80892857D01*
X68235714Y-79750000D02*
X68307142Y-79678571D01*
X68378571Y-79750000D01*
X68307142Y-79821428D01*
X68235714Y-79750000D01*
X68378571Y-79750000D01*
X66878571Y-78321428D02*
X66878571Y-79035714D01*
X67592857Y-79107142D01*
X67521428Y-79035714D01*
X67450000Y-78892857D01*
X67450000Y-78535714D01*
X67521428Y-78392857D01*
X67592857Y-78321428D01*
X67735714Y-78250000D01*
X68092857Y-78250000D01*
X68235714Y-78321428D01*
X68307142Y-78392857D01*
X68378571Y-78535714D01*
X68378571Y-78892857D01*
X68307142Y-79035714D01*
X68235714Y-79107142D01*
X66878571Y-77321428D02*
X66878571Y-77178571D01*
X66950000Y-77035714D01*
X67021428Y-76964285D01*
X67164285Y-76892857D01*
X67450000Y-76821428D01*
X67807142Y-76821428D01*
X68092857Y-76892857D01*
X68235714Y-76964285D01*
X68307142Y-77035714D01*
X68378571Y-77178571D01*
X68378571Y-77321428D01*
X68307142Y-77464285D01*
X68235714Y-77535714D01*
X68092857Y-77607142D01*
X67807142Y-77678571D01*
X67450000Y-77678571D01*
X67164285Y-77607142D01*
X67021428Y-77535714D01*
X66950000Y-77464285D01*
X66878571Y-77321428D01*
X66878571Y-75892857D02*
X66878571Y-75750000D01*
X66950000Y-75607142D01*
X67021428Y-75535714D01*
X67164285Y-75464285D01*
X67450000Y-75392857D01*
X67807142Y-75392857D01*
X68092857Y-75464285D01*
X68235714Y-75535714D01*
X68307142Y-75607142D01*
X68378571Y-75750000D01*
X68378571Y-75892857D01*
X68307142Y-76035714D01*
X68235714Y-76107142D01*
X68092857Y-76178571D01*
X67807142Y-76250000D01*
X67450000Y-76250000D01*
X67164285Y-76178571D01*
X67021428Y-76107142D01*
X66950000Y-76035714D01*
X66878571Y-75892857D01*
X66878571Y-74464285D02*
X66878571Y-74321428D01*
X66950000Y-74178571D01*
X67021428Y-74107142D01*
X67164285Y-74035714D01*
X67450000Y-73964285D01*
X67807142Y-73964285D01*
X68092857Y-74035714D01*
X68235714Y-74107142D01*
X68307142Y-74178571D01*
X68378571Y-74321428D01*
X68378571Y-74464285D01*
X68307142Y-74607142D01*
X68235714Y-74678571D01*
X68092857Y-74750000D01*
X67807142Y-74821428D01*
X67450000Y-74821428D01*
X67164285Y-74750000D01*
X67021428Y-74678571D01*
X66950000Y-74607142D01*
X66878571Y-74464285D01*
X68378571Y-72178571D02*
X67378571Y-72178571D01*
X67521428Y-72178571D02*
X67450000Y-72107142D01*
X67378571Y-71964285D01*
X67378571Y-71750000D01*
X67450000Y-71607142D01*
X67592857Y-71535714D01*
X68378571Y-71535714D01*
X67592857Y-71535714D02*
X67450000Y-71464285D01*
X67378571Y-71321428D01*
X67378571Y-71107142D01*
X67450000Y-70964285D01*
X67592857Y-70892857D01*
X68378571Y-70892857D01*
X68378571Y-70178571D02*
X67378571Y-70178571D01*
X67521428Y-70178571D02*
X67450000Y-70107142D01*
X67378571Y-69964285D01*
X67378571Y-69750000D01*
X67450000Y-69607142D01*
X67592857Y-69535714D01*
X68378571Y-69535714D01*
X67592857Y-69535714D02*
X67450000Y-69464285D01*
X67378571Y-69321428D01*
X67378571Y-69107142D01*
X67450000Y-68964285D01*
X67592857Y-68892857D01*
X68378571Y-68892857D01*
X73500000Y-91000000D02*
X68913580Y-91000000D01*
X73500000Y-60500000D02*
X68913580Y-60500000D01*
X69500000Y-91000000D02*
X69500000Y-60500000D01*
X69500000Y-91000000D02*
X69500000Y-60500000D01*
X69500000Y-91000000D02*
X70086421Y-89873496D01*
X69500000Y-91000000D02*
X68913579Y-89873496D01*
X69500000Y-60500000D02*
X68913579Y-61626504D01*
X69500000Y-60500000D02*
X70086421Y-61626504D01*
X104785714Y-55378571D02*
X104500000Y-55378571D01*
X104357142Y-55450000D01*
X104285714Y-55521428D01*
X104142857Y-55735714D01*
X104071428Y-56021428D01*
X104071428Y-56592857D01*
X104142857Y-56735714D01*
X104214285Y-56807142D01*
X104357142Y-56878571D01*
X104642857Y-56878571D01*
X104785714Y-56807142D01*
X104857142Y-56735714D01*
X104928571Y-56592857D01*
X104928571Y-56235714D01*
X104857142Y-56092857D01*
X104785714Y-56021428D01*
X104642857Y-55950000D01*
X104357142Y-55950000D01*
X104214285Y-56021428D01*
X104142857Y-56092857D01*
X104071428Y-56235714D01*
X106285714Y-55378571D02*
X105571428Y-55378571D01*
X105500000Y-56092857D01*
X105571428Y-56021428D01*
X105714285Y-55950000D01*
X106071428Y-55950000D01*
X106214285Y-56021428D01*
X106285714Y-56092857D01*
X106357142Y-56235714D01*
X106357142Y-56592857D01*
X106285714Y-56735714D01*
X106214285Y-56807142D01*
X106071428Y-56878571D01*
X105714285Y-56878571D01*
X105571428Y-56807142D01*
X105500000Y-56735714D01*
X107000000Y-56735714D02*
X107071428Y-56807142D01*
X107000000Y-56878571D01*
X106928571Y-56807142D01*
X107000000Y-56735714D01*
X107000000Y-56878571D01*
X108000000Y-55378571D02*
X108142857Y-55378571D01*
X108285714Y-55450000D01*
X108357142Y-55521428D01*
X108428571Y-55664285D01*
X108500000Y-55950000D01*
X108500000Y-56307142D01*
X108428571Y-56592857D01*
X108357142Y-56735714D01*
X108285714Y-56807142D01*
X108142857Y-56878571D01*
X108000000Y-56878571D01*
X107857142Y-56807142D01*
X107785714Y-56735714D01*
X107714285Y-56592857D01*
X107642857Y-56307142D01*
X107642857Y-55950000D01*
X107714285Y-55664285D01*
X107785714Y-55521428D01*
X107857142Y-55450000D01*
X108000000Y-55378571D01*
X109428571Y-55378571D02*
X109571428Y-55378571D01*
X109714285Y-55450000D01*
X109785714Y-55521428D01*
X109857142Y-55664285D01*
X109928571Y-55950000D01*
X109928571Y-56307142D01*
X109857142Y-56592857D01*
X109785714Y-56735714D01*
X109714285Y-56807142D01*
X109571428Y-56878571D01*
X109428571Y-56878571D01*
X109285714Y-56807142D01*
X109214285Y-56735714D01*
X109142857Y-56592857D01*
X109071428Y-56307142D01*
X109071428Y-55950000D01*
X109142857Y-55664285D01*
X109214285Y-55521428D01*
X109285714Y-55450000D01*
X109428571Y-55378571D01*
X110857142Y-55378571D02*
X111000000Y-55378571D01*
X111142857Y-55450000D01*
X111214285Y-55521428D01*
X111285714Y-55664285D01*
X111357142Y-55950000D01*
X111357142Y-56307142D01*
X111285714Y-56592857D01*
X111214285Y-56735714D01*
X111142857Y-56807142D01*
X111000000Y-56878571D01*
X110857142Y-56878571D01*
X110714285Y-56807142D01*
X110642857Y-56735714D01*
X110571428Y-56592857D01*
X110500000Y-56307142D01*
X110500000Y-55950000D01*
X110571428Y-55664285D01*
X110642857Y-55521428D01*
X110714285Y-55450000D01*
X110857142Y-55378571D01*
X112285714Y-55378571D02*
X112428571Y-55378571D01*
X112571428Y-55450000D01*
X112642857Y-55521428D01*
X112714285Y-55664285D01*
X112785714Y-55950000D01*
X112785714Y-56307142D01*
X112714285Y-56592857D01*
X112642857Y-56735714D01*
X112571428Y-56807142D01*
X112428571Y-56878571D01*
X112285714Y-56878571D01*
X112142857Y-56807142D01*
X112071428Y-56735714D01*
X112000000Y-56592857D01*
X111928571Y-56307142D01*
X111928571Y-55950000D01*
X112000000Y-55664285D01*
X112071428Y-55521428D01*
X112142857Y-55450000D01*
X112285714Y-55378571D01*
X114571428Y-56878571D02*
X114571428Y-55878571D01*
X114571428Y-56021428D02*
X114642857Y-55950000D01*
X114785714Y-55878571D01*
X115000000Y-55878571D01*
X115142857Y-55950000D01*
X115214285Y-56092857D01*
X115214285Y-56878571D01*
X115214285Y-56092857D02*
X115285714Y-55950000D01*
X115428571Y-55878571D01*
X115642857Y-55878571D01*
X115785714Y-55950000D01*
X115857142Y-56092857D01*
X115857142Y-56878571D01*
X116571428Y-56878571D02*
X116571428Y-55878571D01*
X116571428Y-56021428D02*
X116642857Y-55950000D01*
X116785714Y-55878571D01*
X117000000Y-55878571D01*
X117142857Y-55950000D01*
X117214285Y-56092857D01*
X117214285Y-56878571D01*
X117214285Y-56092857D02*
X117285714Y-55950000D01*
X117428571Y-55878571D01*
X117642857Y-55878571D01*
X117785714Y-55950000D01*
X117857142Y-56092857D01*
X117857142Y-56878571D01*
X143500000Y-60000000D02*
X143500000Y-57413580D01*
X78500000Y-60000000D02*
X78500000Y-57413580D01*
X143500000Y-58000000D02*
X78500000Y-58000000D01*
X143500000Y-58000000D02*
X78500000Y-58000000D01*
X143500000Y-58000000D02*
X142373496Y-57413579D01*
X143500000Y-58000000D02*
X142373496Y-58586421D01*
X78500000Y-58000000D02*
X79626504Y-58586421D01*
X78500000Y-58000000D02*
X79626504Y-57413579D01*
X105330871Y-50477350D02*
X104616611Y-50483508D01*
X104551343Y-51198382D01*
X104622153Y-51126341D01*
X104764389Y-51053683D01*
X105121519Y-51050605D01*
X105264986Y-51120799D01*
X105337028Y-51191609D01*
X105409685Y-51333845D01*
X105412764Y-51690975D01*
X105342570Y-51834443D01*
X105271759Y-51906484D01*
X105129523Y-51979142D01*
X104772394Y-51982220D01*
X104628926Y-51912026D01*
X104556885Y-51841216D01*
X106264949Y-51112179D02*
X106121482Y-51041984D01*
X106049440Y-50971174D01*
X105976783Y-50828938D01*
X105976167Y-50757512D01*
X106046361Y-50614045D01*
X106117171Y-50542003D01*
X106259408Y-50469346D01*
X106545111Y-50466883D01*
X106688579Y-50537077D01*
X106760620Y-50607887D01*
X106833278Y-50750123D01*
X106833894Y-50821549D01*
X106763699Y-50965017D01*
X106692889Y-51037058D01*
X106550653Y-51109716D01*
X106264949Y-51112179D01*
X106122713Y-51184836D01*
X106051903Y-51256878D01*
X105981708Y-51400345D01*
X105984171Y-51686049D01*
X106056829Y-51828285D01*
X106128870Y-51899095D01*
X106272338Y-51969290D01*
X106558042Y-51966827D01*
X106700278Y-51894169D01*
X106771088Y-51822128D01*
X106841282Y-51678660D01*
X106838819Y-51392957D01*
X106766162Y-51250720D01*
X106694120Y-51179910D01*
X106550653Y-51109716D01*
X107485347Y-51815970D02*
X107557389Y-51886781D01*
X107486579Y-51958822D01*
X107414537Y-51888012D01*
X107485347Y-51815970D01*
X107486579Y-51958822D01*
X108473611Y-50450258D02*
X108616463Y-50449026D01*
X108759930Y-50519221D01*
X108831972Y-50590031D01*
X108904629Y-50732267D01*
X108978518Y-51017355D01*
X108981597Y-51374484D01*
X108912634Y-51660804D01*
X108842440Y-51804271D01*
X108771629Y-51876313D01*
X108629393Y-51948970D01*
X108486542Y-51950202D01*
X108343074Y-51880007D01*
X108271032Y-51809197D01*
X108198375Y-51666961D01*
X108124486Y-51381873D01*
X108121407Y-51024744D01*
X108190370Y-50738424D01*
X108260565Y-50594957D01*
X108331375Y-50522915D01*
X108473611Y-50450258D01*
X109902129Y-50437943D02*
X110044981Y-50436711D01*
X110188449Y-50506906D01*
X110260490Y-50577716D01*
X110333148Y-50719952D01*
X110407037Y-51005040D01*
X110410115Y-51362169D01*
X110341152Y-51648489D01*
X110270958Y-51791956D01*
X110200148Y-51863998D01*
X110057912Y-51936656D01*
X109915060Y-51937887D01*
X109771592Y-51867693D01*
X109699551Y-51796882D01*
X109626893Y-51654646D01*
X109553004Y-51369558D01*
X109549926Y-51012429D01*
X109618889Y-50726109D01*
X109689083Y-50582642D01*
X109759893Y-50510600D01*
X109902129Y-50437943D01*
X110974750Y-50571558D02*
X111045560Y-50499517D01*
X111187796Y-50426859D01*
X111544925Y-50423781D01*
X111688393Y-50493975D01*
X111760435Y-50564785D01*
X111833092Y-50707021D01*
X111834324Y-50849873D01*
X111764745Y-51064767D01*
X110915023Y-51929267D01*
X111843560Y-51921262D01*
X112403268Y-50559244D02*
X112474078Y-50487202D01*
X112616314Y-50414545D01*
X112973444Y-50411466D01*
X113116911Y-50481660D01*
X113188953Y-50552471D01*
X113261610Y-50694707D01*
X113262842Y-50837558D01*
X113193263Y-51052452D01*
X112343541Y-51916952D01*
X113272078Y-51908947D01*
X115057726Y-51893554D02*
X115049106Y-50893591D01*
X115050337Y-51036443D02*
X115121147Y-50964401D01*
X115263383Y-50891744D01*
X115477661Y-50889896D01*
X115621129Y-50960091D01*
X115693786Y-51102327D01*
X115700559Y-51888012D01*
X115693786Y-51102327D02*
X115763980Y-50958859D01*
X115906217Y-50886202D01*
X116120494Y-50884355D01*
X116263962Y-50954549D01*
X116336619Y-51096785D01*
X116343392Y-51882470D01*
X117057652Y-51876313D02*
X117049031Y-50876350D01*
X117050263Y-51019202D02*
X117121073Y-50947160D01*
X117263309Y-50874503D01*
X117477587Y-50872656D01*
X117621054Y-50942850D01*
X117693712Y-51085086D01*
X117700485Y-51870771D01*
X117693712Y-51085086D02*
X117763906Y-50941619D01*
X117906142Y-50868961D01*
X118120420Y-50867114D01*
X118263888Y-50937308D01*
X118336545Y-51079545D01*
X118343318Y-51865230D01*
X140517648Y-55295541D02*
X140491043Y-52209330D01*
X82517648Y-55795541D02*
X82491043Y-52709330D01*
X140496098Y-52795728D02*
X82496098Y-53295728D01*
X140496098Y-52795728D02*
X82496098Y-53295728D01*
X140496098Y-52795728D02*
X139364581Y-52219040D01*
X140496098Y-52795728D02*
X139374691Y-53391838D01*
X82496098Y-53295728D02*
X83627615Y-53872416D01*
X82496098Y-53295728D02*
X83617505Y-52699618D01*
D10*
X84888571Y-67867142D02*
X84860000Y-67924285D01*
X84802857Y-67981428D01*
X84717142Y-68067142D01*
X84688571Y-68124285D01*
X84688571Y-68181428D01*
X84831428Y-68152857D02*
X84802857Y-68210000D01*
X84745714Y-68267142D01*
X84631428Y-68295714D01*
X84431428Y-68295714D01*
X84317142Y-68267142D01*
X84260000Y-68210000D01*
X84231428Y-68152857D01*
X84231428Y-68038571D01*
X84260000Y-67981428D01*
X84317142Y-67924285D01*
X84431428Y-67895714D01*
X84631428Y-67895714D01*
X84745714Y-67924285D01*
X84802857Y-67981428D01*
X84831428Y-68038571D01*
X84831428Y-68152857D01*
X84288571Y-67667142D02*
X84260000Y-67638571D01*
X84231428Y-67581428D01*
X84231428Y-67438571D01*
X84260000Y-67381428D01*
X84288571Y-67352857D01*
X84345714Y-67324285D01*
X84402857Y-67324285D01*
X84488571Y-67352857D01*
X84831428Y-67695714D01*
X84831428Y-67324285D01*
X107904680Y-76534864D02*
X108714204Y-76534864D01*
X108809442Y-76487245D01*
X108857061Y-76439626D01*
X108904680Y-76344388D01*
X108904680Y-76153912D01*
X108857061Y-76058674D01*
X108809442Y-76011055D01*
X108714204Y-75963436D01*
X107904680Y-75963436D01*
X107904680Y-75058674D02*
X107904680Y-75249150D01*
X107952300Y-75344388D01*
X107999919Y-75392007D01*
X108142776Y-75487245D01*
X108333252Y-75534864D01*
X108714204Y-75534864D01*
X108809442Y-75487245D01*
X108857061Y-75439626D01*
X108904680Y-75344388D01*
X108904680Y-75153912D01*
X108857061Y-75058674D01*
X108809442Y-75011055D01*
X108714204Y-74963436D01*
X108476109Y-74963436D01*
X108380871Y-75011055D01*
X108333252Y-75058674D01*
X108285633Y-75153912D01*
X108285633Y-75344388D01*
X108333252Y-75439626D01*
X108380871Y-75487245D01*
X108476109Y-75534864D01*
X107550000Y-69964285D02*
X107521428Y-69992857D01*
X107435714Y-70021428D01*
X107378571Y-70021428D01*
X107292857Y-69992857D01*
X107235714Y-69935714D01*
X107207142Y-69878571D01*
X107178571Y-69764285D01*
X107178571Y-69678571D01*
X107207142Y-69564285D01*
X107235714Y-69507142D01*
X107292857Y-69450000D01*
X107378571Y-69421428D01*
X107435714Y-69421428D01*
X107521428Y-69450000D01*
X107550000Y-69478571D01*
X108064285Y-69421428D02*
X107950000Y-69421428D01*
X107892857Y-69450000D01*
X107864285Y-69478571D01*
X107807142Y-69564285D01*
X107778571Y-69678571D01*
X107778571Y-69907142D01*
X107807142Y-69964285D01*
X107835714Y-69992857D01*
X107892857Y-70021428D01*
X108007142Y-70021428D01*
X108064285Y-69992857D01*
X108092857Y-69964285D01*
X108121428Y-69907142D01*
X108121428Y-69764285D01*
X108092857Y-69707142D01*
X108064285Y-69678571D01*
X108007142Y-69650000D01*
X107892857Y-69650000D01*
X107835714Y-69678571D01*
X107807142Y-69707142D01*
X107778571Y-69764285D01*
X115850000Y-71601666D02*
X115883333Y-71635000D01*
X115916666Y-71735000D01*
X115916666Y-71801666D01*
X115883333Y-71901666D01*
X115816666Y-71968333D01*
X115750000Y-72001666D01*
X115616666Y-72035000D01*
X115516666Y-72035000D01*
X115383333Y-72001666D01*
X115316666Y-71968333D01*
X115250000Y-71901666D01*
X115216666Y-71801666D01*
X115216666Y-71735000D01*
X115250000Y-71635000D01*
X115283333Y-71601666D01*
X115216666Y-71368333D02*
X115216666Y-70901666D01*
X115916666Y-71201666D01*
X116621428Y-68200000D02*
X116335714Y-68400000D01*
X116621428Y-68542857D02*
X116021428Y-68542857D01*
X116021428Y-68314285D01*
X116050000Y-68257142D01*
X116078571Y-68228571D01*
X116135714Y-68200000D01*
X116221428Y-68200000D01*
X116278571Y-68228571D01*
X116307142Y-68257142D01*
X116335714Y-68314285D01*
X116335714Y-68542857D01*
X116621428Y-67628571D02*
X116621428Y-67971428D01*
X116621428Y-67800000D02*
X116021428Y-67800000D01*
X116107142Y-67857142D01*
X116164285Y-67914285D01*
X116192857Y-67971428D01*
X116621428Y-69800000D02*
X116335714Y-70000000D01*
X116621428Y-70142857D02*
X116021428Y-70142857D01*
X116021428Y-69914285D01*
X116050000Y-69857142D01*
X116078571Y-69828571D01*
X116135714Y-69800000D01*
X116221428Y-69800000D01*
X116278571Y-69828571D01*
X116307142Y-69857142D01*
X116335714Y-69914285D01*
X116335714Y-70142857D01*
X116078571Y-69571428D02*
X116050000Y-69542857D01*
X116021428Y-69485714D01*
X116021428Y-69342857D01*
X116050000Y-69285714D01*
X116078571Y-69257142D01*
X116135714Y-69228571D01*
X116192857Y-69228571D01*
X116278571Y-69257142D01*
X116621428Y-69600000D01*
X116621428Y-69228571D01*
X108064285Y-78071428D02*
X107864285Y-77785714D01*
X107721428Y-78071428D02*
X107721428Y-77471428D01*
X107950000Y-77471428D01*
X108007142Y-77500000D01*
X108035714Y-77528571D01*
X108064285Y-77585714D01*
X108064285Y-77671428D01*
X108035714Y-77728571D01*
X108007142Y-77757142D01*
X107950000Y-77785714D01*
X107721428Y-77785714D01*
X108635714Y-78071428D02*
X108292857Y-78071428D01*
X108464285Y-78071428D02*
X108464285Y-77471428D01*
X108407142Y-77557142D01*
X108350000Y-77614285D01*
X108292857Y-77642857D01*
X109207142Y-78071428D02*
X108864285Y-78071428D01*
X109035714Y-78071428D02*
X109035714Y-77471428D01*
X108978571Y-77557142D01*
X108921428Y-77614285D01*
X108864285Y-77642857D01*
D16*
X110042857Y-69491428D02*
X110042857Y-69977142D01*
X110071428Y-70034285D01*
X110100000Y-70062857D01*
X110157142Y-70091428D01*
X110271428Y-70091428D01*
X110328571Y-70062857D01*
X110357142Y-70034285D01*
X110385714Y-69977142D01*
X110385714Y-69491428D01*
X110928571Y-69691428D02*
X110928571Y-70091428D01*
X110785714Y-69462857D02*
X110642857Y-69891428D01*
X111014285Y-69891428D01*
D10*
X119921428Y-74210000D02*
X120350000Y-74210000D01*
X120435714Y-74238571D01*
X120492857Y-74295714D01*
X120521428Y-74381428D01*
X120521428Y-74438571D01*
X119978571Y-73952857D02*
X119950000Y-73924285D01*
X119921428Y-73867142D01*
X119921428Y-73724285D01*
X119950000Y-73667142D01*
X119978571Y-73638571D01*
X120035714Y-73610000D01*
X120092857Y-73610000D01*
X120178571Y-73638571D01*
X120521428Y-73981428D01*
X120521428Y-73610000D01*
X116671428Y-71400000D02*
X116385714Y-71600000D01*
X116671428Y-71742857D02*
X116071428Y-71742857D01*
X116071428Y-71514285D01*
X116100000Y-71457142D01*
X116128571Y-71428571D01*
X116185714Y-71400000D01*
X116271428Y-71400000D01*
X116328571Y-71428571D01*
X116357142Y-71457142D01*
X116385714Y-71514285D01*
X116385714Y-71742857D01*
X116071428Y-71200000D02*
X116071428Y-70828571D01*
X116300000Y-71028571D01*
X116300000Y-70942857D01*
X116328571Y-70885714D01*
X116357142Y-70857142D01*
X116414285Y-70828571D01*
X116557142Y-70828571D01*
X116614285Y-70857142D01*
X116642857Y-70885714D01*
X116671428Y-70942857D01*
X116671428Y-71114285D01*
X116642857Y-71171428D01*
X116614285Y-71200000D01*
D16*
X123392857Y-73221428D02*
X123392857Y-73707142D01*
X123421428Y-73764285D01*
X123450000Y-73792857D01*
X123507142Y-73821428D01*
X123621428Y-73821428D01*
X123678571Y-73792857D01*
X123707142Y-73764285D01*
X123735714Y-73707142D01*
X123735714Y-73221428D01*
X124335714Y-73821428D02*
X123992857Y-73821428D01*
X124164285Y-73821428D02*
X124164285Y-73221428D01*
X124107142Y-73307142D01*
X124050000Y-73364285D01*
X123992857Y-73392857D01*
D10*
X120916666Y-85483333D02*
X121416666Y-85483333D01*
X121516666Y-85516666D01*
X121583333Y-85583333D01*
X121616666Y-85683333D01*
X121616666Y-85750000D01*
X121150000Y-84850000D02*
X121616666Y-84850000D01*
X120883333Y-85016666D02*
X121383333Y-85183333D01*
X121383333Y-84750000D01*
X104860000Y-77511428D02*
X104860000Y-77940000D01*
X104831428Y-78025714D01*
X104774285Y-78082857D01*
X104688571Y-78111428D01*
X104631428Y-78111428D01*
X105402857Y-77511428D02*
X105288571Y-77511428D01*
X105231428Y-77540000D01*
X105202857Y-77568571D01*
X105145714Y-77654285D01*
X105117142Y-77768571D01*
X105117142Y-77997142D01*
X105145714Y-78054285D01*
X105174285Y-78082857D01*
X105231428Y-78111428D01*
X105345714Y-78111428D01*
X105402857Y-78082857D01*
X105431428Y-78054285D01*
X105460000Y-77997142D01*
X105460000Y-77854285D01*
X105431428Y-77797142D01*
X105402857Y-77768571D01*
X105345714Y-77740000D01*
X105231428Y-77740000D01*
X105174285Y-77768571D01*
X105145714Y-77797142D01*
X105117142Y-77854285D01*
X80807142Y-80931428D02*
X80807142Y-80331428D01*
X80950000Y-80331428D01*
X81035714Y-80360000D01*
X81092857Y-80417142D01*
X81121428Y-80474285D01*
X81150000Y-80588571D01*
X81150000Y-80674285D01*
X81121428Y-80788571D01*
X81092857Y-80845714D01*
X81035714Y-80902857D01*
X80950000Y-80931428D01*
X80807142Y-80931428D01*
X81378571Y-80388571D02*
X81407142Y-80360000D01*
X81464285Y-80331428D01*
X81607142Y-80331428D01*
X81664285Y-80360000D01*
X81692857Y-80388571D01*
X81721428Y-80445714D01*
X81721428Y-80502857D01*
X81692857Y-80588571D01*
X81350000Y-80931428D01*
X81721428Y-80931428D01*
X82261428Y-75965714D02*
X81975714Y-76165714D01*
X82261428Y-76308571D02*
X81661428Y-76308571D01*
X81661428Y-76080000D01*
X81690000Y-76022857D01*
X81718571Y-75994285D01*
X81775714Y-75965714D01*
X81861428Y-75965714D01*
X81918571Y-75994285D01*
X81947142Y-76022857D01*
X81975714Y-76080000D01*
X81975714Y-76308571D01*
X81718571Y-75737142D02*
X81690000Y-75708571D01*
X81661428Y-75651428D01*
X81661428Y-75508571D01*
X81690000Y-75451428D01*
X81718571Y-75422857D01*
X81775714Y-75394285D01*
X81832857Y-75394285D01*
X81918571Y-75422857D01*
X82261428Y-75765714D01*
X82261428Y-75394285D01*
X81661428Y-75022857D02*
X81661428Y-74965714D01*
X81690000Y-74908571D01*
X81718571Y-74880000D01*
X81775714Y-74851428D01*
X81890000Y-74822857D01*
X82032857Y-74822857D01*
X82147142Y-74851428D01*
X82204285Y-74880000D01*
X82232857Y-74908571D01*
X82261428Y-74965714D01*
X82261428Y-75022857D01*
X82232857Y-75080000D01*
X82204285Y-75108571D01*
X82147142Y-75137142D01*
X82032857Y-75165714D01*
X81890000Y-75165714D01*
X81775714Y-75137142D01*
X81718571Y-75108571D01*
X81690000Y-75080000D01*
X81661428Y-75022857D01*
X87564285Y-75580000D02*
X87592857Y-75608571D01*
X87621428Y-75694285D01*
X87621428Y-75751428D01*
X87592857Y-75837142D01*
X87535714Y-75894285D01*
X87478571Y-75922857D01*
X87364285Y-75951428D01*
X87278571Y-75951428D01*
X87164285Y-75922857D01*
X87107142Y-75894285D01*
X87050000Y-75837142D01*
X87021428Y-75751428D01*
X87021428Y-75694285D01*
X87050000Y-75608571D01*
X87078571Y-75580000D01*
X87278571Y-75237142D02*
X87250000Y-75294285D01*
X87221428Y-75322857D01*
X87164285Y-75351428D01*
X87135714Y-75351428D01*
X87078571Y-75322857D01*
X87050000Y-75294285D01*
X87021428Y-75237142D01*
X87021428Y-75122857D01*
X87050000Y-75065714D01*
X87078571Y-75037142D01*
X87135714Y-75008571D01*
X87164285Y-75008571D01*
X87221428Y-75037142D01*
X87250000Y-75065714D01*
X87278571Y-75122857D01*
X87278571Y-75237142D01*
X87307142Y-75294285D01*
X87335714Y-75322857D01*
X87392857Y-75351428D01*
X87507142Y-75351428D01*
X87564285Y-75322857D01*
X87592857Y-75294285D01*
X87621428Y-75237142D01*
X87621428Y-75122857D01*
X87592857Y-75065714D01*
X87564285Y-75037142D01*
X87507142Y-75008571D01*
X87392857Y-75008571D01*
X87335714Y-75037142D01*
X87307142Y-75065714D01*
X87278571Y-75122857D01*
X100240000Y-77120000D02*
X100273333Y-77153333D01*
X100306666Y-77253333D01*
X100306666Y-77320000D01*
X100273333Y-77420000D01*
X100206666Y-77486666D01*
X100140000Y-77520000D01*
X100006666Y-77553333D01*
X99906666Y-77553333D01*
X99773333Y-77520000D01*
X99706666Y-77486666D01*
X99640000Y-77420000D01*
X99606666Y-77320000D01*
X99606666Y-77253333D01*
X99640000Y-77153333D01*
X99673333Y-77120000D01*
X100306666Y-76453333D02*
X100306666Y-76853333D01*
X100306666Y-76653333D02*
X99606666Y-76653333D01*
X99706666Y-76720000D01*
X99773333Y-76786666D01*
X99806666Y-76853333D01*
X100306666Y-75786666D02*
X100306666Y-76186666D01*
X100306666Y-75986666D02*
X99606666Y-75986666D01*
X99706666Y-76053333D01*
X99773333Y-76120000D01*
X99806666Y-76186666D01*
X89244285Y-78135714D02*
X89272857Y-78164285D01*
X89301428Y-78250000D01*
X89301428Y-78307142D01*
X89272857Y-78392857D01*
X89215714Y-78450000D01*
X89158571Y-78478571D01*
X89044285Y-78507142D01*
X88958571Y-78507142D01*
X88844285Y-78478571D01*
X88787142Y-78450000D01*
X88730000Y-78392857D01*
X88701428Y-78307142D01*
X88701428Y-78250000D01*
X88730000Y-78164285D01*
X88758571Y-78135714D01*
X89301428Y-77564285D02*
X89301428Y-77907142D01*
X89301428Y-77735714D02*
X88701428Y-77735714D01*
X88787142Y-77792857D01*
X88844285Y-77850000D01*
X88872857Y-77907142D01*
X88758571Y-77335714D02*
X88730000Y-77307142D01*
X88701428Y-77250000D01*
X88701428Y-77107142D01*
X88730000Y-77050000D01*
X88758571Y-77021428D01*
X88815714Y-76992857D01*
X88872857Y-76992857D01*
X88958571Y-77021428D01*
X89301428Y-77364285D01*
X89301428Y-76992857D01*
X98370000Y-77152500D02*
X98403333Y-77185833D01*
X98436666Y-77285833D01*
X98436666Y-77352500D01*
X98403333Y-77452500D01*
X98336666Y-77519166D01*
X98270000Y-77552500D01*
X98136666Y-77585833D01*
X98036666Y-77585833D01*
X97903333Y-77552500D01*
X97836666Y-77519166D01*
X97770000Y-77452500D01*
X97736666Y-77352500D01*
X97736666Y-77285833D01*
X97770000Y-77185833D01*
X97803333Y-77152500D01*
X98436666Y-76485833D02*
X98436666Y-76885833D01*
X98436666Y-76685833D02*
X97736666Y-76685833D01*
X97836666Y-76752500D01*
X97903333Y-76819166D01*
X97936666Y-76885833D01*
X97736666Y-76252500D02*
X97736666Y-75819166D01*
X98003333Y-76052500D01*
X98003333Y-75952500D01*
X98036666Y-75885833D01*
X98070000Y-75852500D01*
X98136666Y-75819166D01*
X98303333Y-75819166D01*
X98370000Y-75852500D01*
X98403333Y-75885833D01*
X98436666Y-75952500D01*
X98436666Y-76152500D01*
X98403333Y-76219166D01*
X98370000Y-76252500D01*
X83404285Y-70804285D02*
X83375714Y-70832857D01*
X83290000Y-70861428D01*
X83232857Y-70861428D01*
X83147142Y-70832857D01*
X83090000Y-70775714D01*
X83061428Y-70718571D01*
X83032857Y-70604285D01*
X83032857Y-70518571D01*
X83061428Y-70404285D01*
X83090000Y-70347142D01*
X83147142Y-70290000D01*
X83232857Y-70261428D01*
X83290000Y-70261428D01*
X83375714Y-70290000D01*
X83404285Y-70318571D01*
X83975714Y-70861428D02*
X83632857Y-70861428D01*
X83804285Y-70861428D02*
X83804285Y-70261428D01*
X83747142Y-70347142D01*
X83690000Y-70404285D01*
X83632857Y-70432857D01*
X84490000Y-70461428D02*
X84490000Y-70861428D01*
X84347142Y-70232857D02*
X84204285Y-70661428D01*
X84575714Y-70661428D01*
X89021428Y-75450000D02*
X89021428Y-75735714D01*
X88421428Y-75735714D01*
X89021428Y-74935714D02*
X89021428Y-75278571D01*
X89021428Y-75107142D02*
X88421428Y-75107142D01*
X88507142Y-75164285D01*
X88564285Y-75221428D01*
X88592857Y-75278571D01*
X89884285Y-82901428D02*
X89684285Y-82615714D01*
X89541428Y-82901428D02*
X89541428Y-82301428D01*
X89770000Y-82301428D01*
X89827142Y-82330000D01*
X89855714Y-82358571D01*
X89884285Y-82415714D01*
X89884285Y-82501428D01*
X89855714Y-82558571D01*
X89827142Y-82587142D01*
X89770000Y-82615714D01*
X89541428Y-82615714D01*
X90455714Y-82901428D02*
X90112857Y-82901428D01*
X90284285Y-82901428D02*
X90284285Y-82301428D01*
X90227142Y-82387142D01*
X90170000Y-82444285D01*
X90112857Y-82472857D01*
X90684285Y-82358571D02*
X90712857Y-82330000D01*
X90770000Y-82301428D01*
X90912857Y-82301428D01*
X90970000Y-82330000D01*
X90998571Y-82358571D01*
X91027142Y-82415714D01*
X91027142Y-82472857D01*
X90998571Y-82558571D01*
X90655714Y-82901428D01*
X91027142Y-82901428D01*
X101951428Y-82685714D02*
X101665714Y-82885714D01*
X101951428Y-83028571D02*
X101351428Y-83028571D01*
X101351428Y-82800000D01*
X101380000Y-82742857D01*
X101408571Y-82714285D01*
X101465714Y-82685714D01*
X101551428Y-82685714D01*
X101608571Y-82714285D01*
X101637142Y-82742857D01*
X101665714Y-82800000D01*
X101665714Y-83028571D01*
X101951428Y-82114285D02*
X101951428Y-82457142D01*
X101951428Y-82285714D02*
X101351428Y-82285714D01*
X101437142Y-82342857D01*
X101494285Y-82400000D01*
X101522857Y-82457142D01*
X101351428Y-81914285D02*
X101351428Y-81542857D01*
X101580000Y-81742857D01*
X101580000Y-81657142D01*
X101608571Y-81600000D01*
X101637142Y-81571428D01*
X101694285Y-81542857D01*
X101837142Y-81542857D01*
X101894285Y-81571428D01*
X101922857Y-81600000D01*
X101951428Y-81657142D01*
X101951428Y-81828571D01*
X101922857Y-81885714D01*
X101894285Y-81914285D01*
D16*
X96098571Y-83576190D02*
X95931904Y-83338095D01*
X95812857Y-83576190D02*
X95812857Y-83076190D01*
X96003333Y-83076190D01*
X96050952Y-83100000D01*
X96074761Y-83123809D01*
X96098571Y-83171428D01*
X96098571Y-83242857D01*
X96074761Y-83290476D01*
X96050952Y-83314285D01*
X96003333Y-83338095D01*
X95812857Y-83338095D01*
X96574761Y-83576190D02*
X96289047Y-83576190D01*
X96431904Y-83576190D02*
X96431904Y-83076190D01*
X96384285Y-83147619D01*
X96336666Y-83195238D01*
X96289047Y-83219047D01*
X97003333Y-83242857D02*
X97003333Y-83576190D01*
X96884285Y-83052380D02*
X96765238Y-83409523D01*
X97074761Y-83409523D01*
X94078571Y-83606190D02*
X93911904Y-83368095D01*
X93792857Y-83606190D02*
X93792857Y-83106190D01*
X93983333Y-83106190D01*
X94030952Y-83130000D01*
X94054761Y-83153809D01*
X94078571Y-83201428D01*
X94078571Y-83272857D01*
X94054761Y-83320476D01*
X94030952Y-83344285D01*
X93983333Y-83368095D01*
X93792857Y-83368095D01*
X94269047Y-83153809D02*
X94292857Y-83130000D01*
X94340476Y-83106190D01*
X94459523Y-83106190D01*
X94507142Y-83130000D01*
X94530952Y-83153809D01*
X94554761Y-83201428D01*
X94554761Y-83249047D01*
X94530952Y-83320476D01*
X94245238Y-83606190D01*
X94554761Y-83606190D01*
X95030952Y-83606190D02*
X94745238Y-83606190D01*
X94888095Y-83606190D02*
X94888095Y-83106190D01*
X94840476Y-83177619D01*
X94792857Y-83225238D01*
X94745238Y-83249047D01*
D10*
X88606666Y-80803333D02*
X89173333Y-80803333D01*
X89240000Y-80770000D01*
X89273333Y-80736666D01*
X89306666Y-80670000D01*
X89306666Y-80536666D01*
X89273333Y-80470000D01*
X89240000Y-80436666D01*
X89173333Y-80403333D01*
X88606666Y-80403333D01*
X88606666Y-79736666D02*
X88606666Y-80070000D01*
X88940000Y-80103333D01*
X88906666Y-80070000D01*
X88873333Y-80003333D01*
X88873333Y-79836666D01*
X88906666Y-79770000D01*
X88940000Y-79736666D01*
X89006666Y-79703333D01*
X89173333Y-79703333D01*
X89240000Y-79736666D01*
X89273333Y-79770000D01*
X89306666Y-79836666D01*
X89306666Y-80003333D01*
X89273333Y-80070000D01*
X89240000Y-80103333D01*
X87564285Y-79930000D02*
X87592857Y-79958571D01*
X87621428Y-80044285D01*
X87621428Y-80101428D01*
X87592857Y-80187142D01*
X87535714Y-80244285D01*
X87478571Y-80272857D01*
X87364285Y-80301428D01*
X87278571Y-80301428D01*
X87164285Y-80272857D01*
X87107142Y-80244285D01*
X87050000Y-80187142D01*
X87021428Y-80101428D01*
X87021428Y-80044285D01*
X87050000Y-79958571D01*
X87078571Y-79930000D01*
X87621428Y-79358571D02*
X87621428Y-79701428D01*
X87621428Y-79530000D02*
X87021428Y-79530000D01*
X87107142Y-79587142D01*
X87164285Y-79644285D01*
X87192857Y-79701428D01*
X112500000Y-78071428D02*
X112300000Y-77785714D01*
X112157142Y-78071428D02*
X112157142Y-77471428D01*
X112385714Y-77471428D01*
X112442857Y-77500000D01*
X112471428Y-77528571D01*
X112500000Y-77585714D01*
X112500000Y-77671428D01*
X112471428Y-77728571D01*
X112442857Y-77757142D01*
X112385714Y-77785714D01*
X112157142Y-77785714D01*
X113014285Y-77471428D02*
X112900000Y-77471428D01*
X112842857Y-77500000D01*
X112814285Y-77528571D01*
X112757142Y-77614285D01*
X112728571Y-77728571D01*
X112728571Y-77957142D01*
X112757142Y-78014285D01*
X112785714Y-78042857D01*
X112842857Y-78071428D01*
X112957142Y-78071428D01*
X113014285Y-78042857D01*
X113042857Y-78014285D01*
X113071428Y-77957142D01*
X113071428Y-77814285D01*
X113042857Y-77757142D01*
X113014285Y-77728571D01*
X112957142Y-77700000D01*
X112842857Y-77700000D01*
X112785714Y-77728571D01*
X112757142Y-77757142D01*
X112728571Y-77814285D01*
X136742857Y-83400000D02*
X136771428Y-83314285D01*
X136771428Y-83171428D01*
X136742857Y-83114285D01*
X136714285Y-83085714D01*
X136657142Y-83057142D01*
X136600000Y-83057142D01*
X136542857Y-83085714D01*
X136514285Y-83114285D01*
X136485714Y-83171428D01*
X136457142Y-83285714D01*
X136428571Y-83342857D01*
X136400000Y-83371428D01*
X136342857Y-83400000D01*
X136285714Y-83400000D01*
X136228571Y-83371428D01*
X136200000Y-83342857D01*
X136171428Y-83285714D01*
X136171428Y-83142857D01*
X136200000Y-83057142D01*
X136171428Y-82857142D02*
X136771428Y-82714285D01*
X136342857Y-82600000D01*
X136771428Y-82485714D01*
X136171428Y-82342857D01*
X136771428Y-81800000D02*
X136771428Y-82142857D01*
X136771428Y-81971428D02*
X136171428Y-81971428D01*
X136257142Y-82028571D01*
X136314285Y-82085714D01*
X136342857Y-82142857D01*
X100530000Y-88894285D02*
X100501428Y-88922857D01*
X100415714Y-88951428D01*
X100358571Y-88951428D01*
X100272857Y-88922857D01*
X100215714Y-88865714D01*
X100187142Y-88808571D01*
X100158571Y-88694285D01*
X100158571Y-88608571D01*
X100187142Y-88494285D01*
X100215714Y-88437142D01*
X100272857Y-88380000D01*
X100358571Y-88351428D01*
X100415714Y-88351428D01*
X100501428Y-88380000D01*
X100530000Y-88408571D01*
X101044285Y-88551428D02*
X101044285Y-88951428D01*
X100901428Y-88322857D02*
X100758571Y-88751428D01*
X101130000Y-88751428D01*
X86620000Y-88024285D02*
X86591428Y-88052857D01*
X86505714Y-88081428D01*
X86448571Y-88081428D01*
X86362857Y-88052857D01*
X86305714Y-87995714D01*
X86277142Y-87938571D01*
X86248571Y-87824285D01*
X86248571Y-87738571D01*
X86277142Y-87624285D01*
X86305714Y-87567142D01*
X86362857Y-87510000D01*
X86448571Y-87481428D01*
X86505714Y-87481428D01*
X86591428Y-87510000D01*
X86620000Y-87538571D01*
X87162857Y-87481428D02*
X86877142Y-87481428D01*
X86848571Y-87767142D01*
X86877142Y-87738571D01*
X86934285Y-87710000D01*
X87077142Y-87710000D01*
X87134285Y-87738571D01*
X87162857Y-87767142D01*
X87191428Y-87824285D01*
X87191428Y-87967142D01*
X87162857Y-88024285D01*
X87134285Y-88052857D01*
X87077142Y-88081428D01*
X86934285Y-88081428D01*
X86877142Y-88052857D01*
X86848571Y-88024285D01*
X87821428Y-83020000D02*
X87821428Y-83305714D01*
X87221428Y-83305714D01*
X87278571Y-82848571D02*
X87250000Y-82820000D01*
X87221428Y-82762857D01*
X87221428Y-82620000D01*
X87250000Y-82562857D01*
X87278571Y-82534285D01*
X87335714Y-82505714D01*
X87392857Y-82505714D01*
X87478571Y-82534285D01*
X87821428Y-82877142D01*
X87821428Y-82505714D01*
X82111428Y-82930000D02*
X81825714Y-83130000D01*
X82111428Y-83272857D02*
X81511428Y-83272857D01*
X81511428Y-83044285D01*
X81540000Y-82987142D01*
X81568571Y-82958571D01*
X81625714Y-82930000D01*
X81711428Y-82930000D01*
X81768571Y-82958571D01*
X81797142Y-82987142D01*
X81825714Y-83044285D01*
X81825714Y-83272857D01*
X81511428Y-82730000D02*
X81511428Y-82330000D01*
X82111428Y-82587142D01*
X97250000Y-88884285D02*
X97221428Y-88912857D01*
X97135714Y-88941428D01*
X97078571Y-88941428D01*
X96992857Y-88912857D01*
X96935714Y-88855714D01*
X96907142Y-88798571D01*
X96878571Y-88684285D01*
X96878571Y-88598571D01*
X96907142Y-88484285D01*
X96935714Y-88427142D01*
X96992857Y-88370000D01*
X97078571Y-88341428D01*
X97135714Y-88341428D01*
X97221428Y-88370000D01*
X97250000Y-88398571D01*
X97450000Y-88341428D02*
X97821428Y-88341428D01*
X97621428Y-88570000D01*
X97707142Y-88570000D01*
X97764285Y-88598571D01*
X97792857Y-88627142D01*
X97821428Y-88684285D01*
X97821428Y-88827142D01*
X97792857Y-88884285D01*
X97764285Y-88912857D01*
X97707142Y-88941428D01*
X97535714Y-88941428D01*
X97478571Y-88912857D01*
X97450000Y-88884285D01*
X128071428Y-70297142D02*
X128557142Y-70297142D01*
X128614285Y-70268571D01*
X128642857Y-70240000D01*
X128671428Y-70182857D01*
X128671428Y-70068571D01*
X128642857Y-70011428D01*
X128614285Y-69982857D01*
X128557142Y-69954285D01*
X128071428Y-69954285D01*
X128128571Y-69697142D02*
X128100000Y-69668571D01*
X128071428Y-69611428D01*
X128071428Y-69468571D01*
X128100000Y-69411428D01*
X128128571Y-69382857D01*
X128185714Y-69354285D01*
X128242857Y-69354285D01*
X128328571Y-69382857D01*
X128671428Y-69725714D01*
X128671428Y-69354285D01*
X108560000Y-67314285D02*
X108531428Y-67342857D01*
X108445714Y-67371428D01*
X108388571Y-67371428D01*
X108302857Y-67342857D01*
X108245714Y-67285714D01*
X108217142Y-67228571D01*
X108188571Y-67114285D01*
X108188571Y-67028571D01*
X108217142Y-66914285D01*
X108245714Y-66857142D01*
X108302857Y-66800000D01*
X108388571Y-66771428D01*
X108445714Y-66771428D01*
X108531428Y-66800000D01*
X108560000Y-66828571D01*
X108788571Y-66828571D02*
X108817142Y-66800000D01*
X108874285Y-66771428D01*
X109017142Y-66771428D01*
X109074285Y-66800000D01*
X109102857Y-66828571D01*
X109131428Y-66885714D01*
X109131428Y-66942857D01*
X109102857Y-67028571D01*
X108760000Y-67371428D01*
X109131428Y-67371428D01*
X107026666Y-77286666D02*
X106326666Y-77286666D01*
X106326666Y-77120000D01*
X106360000Y-77020000D01*
X106426666Y-76953333D01*
X106493333Y-76920000D01*
X106626666Y-76886666D01*
X106726666Y-76886666D01*
X106860000Y-76920000D01*
X106926666Y-76953333D01*
X106993333Y-77020000D01*
X107026666Y-77120000D01*
X107026666Y-77286666D01*
X106560000Y-76286666D02*
X107026666Y-76286666D01*
X106293333Y-76453333D02*
X106793333Y-76620000D01*
X106793333Y-76186666D01*
D17*
X85200000Y-67580000D02*
X86660000Y-67580000D01*
X85200000Y-70740000D02*
X87360000Y-70740000D01*
X85200000Y-67580000D02*
X85200000Y-68510000D01*
X85200000Y-70740000D02*
X85200000Y-69810000D01*
X109292300Y-75072960D02*
X109292300Y-76972960D01*
X111612300Y-76472960D02*
X111612300Y-75072960D01*
X106890000Y-71628922D02*
X106890000Y-72146078D01*
X108310000Y-71628922D02*
X108310000Y-72146078D01*
X118375279Y-68610000D02*
X118049721Y-68610000D01*
X118375279Y-67590000D02*
X118049721Y-67590000D01*
X118412779Y-69190000D02*
X118087221Y-69190000D01*
X118412779Y-70210000D02*
X118087221Y-70210000D01*
X107840000Y-75874779D02*
X107840000Y-75549221D01*
X108860000Y-75874779D02*
X108860000Y-75549221D01*
X110300000Y-73560000D02*
X112100000Y-73560000D01*
X112100000Y-70340000D02*
X109650000Y-70340000D01*
X119450000Y-75410000D02*
X117450000Y-75410000D01*
X117450000Y-72610000D02*
X119450000Y-72610000D01*
X119450000Y-72610000D02*
X119450000Y-75410000D01*
X117450000Y-75410000D02*
X117450000Y-72610000D01*
X118049721Y-71810000D02*
X118375279Y-71810000D01*
X118049721Y-70790000D02*
X118375279Y-70790000D01*
D10*
X125825000Y-72825000D02*
X125825000Y-72775000D01*
X125825000Y-67675000D02*
X125825000Y-67820000D01*
X125825000Y-72825000D02*
X121675000Y-72825000D01*
X125825000Y-72775000D02*
X127225000Y-72775000D01*
X125825000Y-67675000D02*
X121675000Y-67675000D01*
X121675000Y-72825000D02*
X121675000Y-72680000D01*
X121675000Y-67675000D02*
X121675000Y-67820000D01*
D17*
X113265000Y-85990000D02*
X113265000Y-85000000D01*
X111465000Y-87440000D02*
X111465000Y-85990000D01*
X122435000Y-85990000D02*
X120635000Y-85990000D01*
X112735000Y-90260000D02*
X121165000Y-90260000D01*
X122435000Y-87440000D02*
X122435000Y-85990000D01*
X111465000Y-85990000D02*
X113265000Y-85990000D01*
X106600000Y-80710000D02*
X106300000Y-80710000D01*
X102120000Y-81160000D02*
X102120000Y-89840000D01*
X106300000Y-80710000D02*
X106300000Y-81160000D01*
X103800000Y-80710000D02*
X103800000Y-81160000D01*
X102120000Y-89840000D02*
X108280000Y-89840000D01*
X108280000Y-81160000D02*
X102120000Y-81160000D01*
X107984264Y-79650000D02*
X107984264Y-79050000D01*
X106300000Y-81160000D02*
X106600000Y-81160000D01*
X107560000Y-79350000D02*
X107984264Y-79650000D01*
X104100000Y-81160000D02*
X104100000Y-80710000D01*
X103800000Y-81160000D02*
X104100000Y-81160000D01*
X107984264Y-79050000D02*
X107560000Y-79350000D01*
X104100000Y-80710000D02*
X103800000Y-80710000D01*
X106600000Y-81160000D02*
X106600000Y-80710000D01*
X108280000Y-89840000D02*
X108280000Y-81160000D01*
X80505000Y-77817500D02*
X80505000Y-80102500D01*
X81975000Y-80102500D02*
X81975000Y-77817500D01*
X80505000Y-80102500D02*
X81975000Y-80102500D01*
X85172064Y-74710000D02*
X83967936Y-74710000D01*
X85172064Y-77430000D02*
X83967936Y-77430000D01*
X100970000Y-79706078D02*
X100970000Y-79188922D01*
X99550000Y-79706078D02*
X99550000Y-79188922D01*
X88340000Y-77852779D02*
X88340000Y-77527221D01*
X87320000Y-77852779D02*
X87320000Y-77527221D01*
X97400000Y-79708578D02*
X97400000Y-79191422D01*
X98820000Y-79708578D02*
X98820000Y-79191422D01*
X87880000Y-74200000D02*
X87880000Y-71180000D01*
X87880000Y-71180000D02*
X83670000Y-71180000D01*
X83670000Y-74200000D02*
X87880000Y-74200000D01*
X97570500Y-75860000D02*
X97570500Y-74545000D01*
X89390500Y-75860000D02*
X97570500Y-75860000D01*
X97570500Y-67680000D02*
X97570500Y-68995000D01*
X89390500Y-74545000D02*
X89390500Y-75860000D01*
X89390500Y-67680000D02*
X97570500Y-67680000D01*
X89390500Y-68995000D02*
X89390500Y-67680000D01*
X99258922Y-81550000D02*
X99776078Y-81550000D01*
X99258922Y-82970000D02*
X99776078Y-82970000D01*
D10*
X95245000Y-81645000D02*
X95245000Y-81500000D01*
X91095000Y-76495000D02*
X95245000Y-76495000D01*
X91095000Y-81645000D02*
X91095000Y-81500000D01*
X91095000Y-76495000D02*
X91095000Y-76545000D01*
X95245000Y-76495000D02*
X95245000Y-76640000D01*
X91095000Y-76545000D02*
X89695000Y-76545000D01*
X91095000Y-81645000D02*
X95245000Y-81645000D01*
D17*
X85172064Y-78120000D02*
X83967936Y-78120000D01*
X85172064Y-80840000D02*
X83967936Y-80840000D01*
X113110000Y-75900279D02*
X113110000Y-75574721D01*
X112090000Y-75900279D02*
X112090000Y-75574721D01*
D10*
X125950000Y-86600000D02*
X128150000Y-86600000D01*
X125950000Y-82000000D02*
X134550000Y-82000000D01*
X132250000Y-86600000D02*
X134550000Y-86600000D01*
D17*
X132825000Y-76870000D02*
X134155000Y-76870000D01*
X131555000Y-76870000D02*
X126415000Y-76870000D01*
X126415000Y-76870000D02*
X126415000Y-79530000D01*
X131555000Y-79530000D02*
X126415000Y-79530000D01*
X134155000Y-76870000D02*
X134155000Y-78200000D01*
X131555000Y-76870000D02*
X131555000Y-79530000D01*
X129000000Y-76150000D02*
X129300000Y-76450000D01*
X128250000Y-73950000D02*
X132350000Y-73950000D01*
X132350000Y-75950000D02*
X128250000Y-75950000D01*
X128700000Y-76450000D02*
X129300000Y-76450000D01*
X129000000Y-76150000D02*
X128700000Y-76450000D01*
X128250000Y-75950000D02*
X128250000Y-73950000D01*
X132350000Y-73950000D02*
X132350000Y-75950000D01*
X98260000Y-85297936D02*
X98260000Y-86502064D01*
X100980000Y-85297936D02*
X100980000Y-86502064D01*
X86675000Y-84505000D02*
X87300000Y-84505000D01*
X86987500Y-84192500D02*
X86987500Y-84817500D01*
X93060000Y-88950000D02*
X93060000Y-87250000D01*
X87540000Y-87885563D02*
X87540000Y-87250000D01*
X87540000Y-84494437D02*
X87540000Y-85130000D01*
X93060000Y-83430000D02*
X93060000Y-85130000D01*
X87540000Y-84494437D02*
X88604437Y-83430000D01*
X88604437Y-83430000D02*
X93060000Y-83430000D01*
X88604437Y-88950000D02*
X93060000Y-88950000D01*
X87540000Y-87885563D02*
X88604437Y-88950000D01*
X84520000Y-82670000D02*
X84520000Y-83370000D01*
X86720000Y-82670000D02*
X86720000Y-83370000D01*
X83560000Y-82667221D02*
X83560000Y-82992779D01*
X82540000Y-82667221D02*
X82540000Y-82992779D01*
X97660000Y-85297936D02*
X97660000Y-86502064D01*
X94940000Y-85297936D02*
X94940000Y-86502064D01*
X131510000Y-70470000D02*
X131510000Y-69060000D01*
X129190000Y-69060000D02*
X129850000Y-69060000D01*
X130850000Y-69060000D02*
X131510000Y-69060000D01*
X129190000Y-69060000D02*
X129190000Y-71090000D01*
X108852779Y-68730000D02*
X108527221Y-68730000D01*
X108852779Y-67710000D02*
X108527221Y-67710000D01*
X106010000Y-77270000D02*
X106010000Y-68870000D01*
X99510000Y-77270000D02*
X99510000Y-68870000D01*
X106010000Y-77270000D02*
X99510000Y-77270000D01*
X81880000Y-70500000D02*
X79220000Y-70500000D01*
X81880000Y-71770000D02*
X81880000Y-73100000D01*
X79220000Y-70500000D02*
X79220000Y-67900000D01*
X81880000Y-70500000D02*
X81880000Y-67900000D01*
X81880000Y-67900000D02*
X79220000Y-67900000D01*
X81880000Y-73100000D02*
X80550000Y-73100000D01*
X115320000Y-69660000D02*
X111220000Y-69660000D01*
X111670000Y-70160000D02*
X112270000Y-70160000D01*
X111970000Y-69860000D02*
X111670000Y-70160000D01*
X111220000Y-67660000D02*
X115320000Y-67660000D01*
X111220000Y-69660000D02*
X111220000Y-67660000D01*
X115320000Y-67660000D02*
X115320000Y-69660000D01*
X111970000Y-69860000D02*
X112270000Y-70160000D01*
M02*
